{"glyphs":{"0":{"ha":1149,"x_min":46,"x_max":1101,"o":"m 585 953 q 951 844 813 953 q 1101 463 1101 725 q 1061 234 1101 338 q 949 71 1021 131 q 571 -26 829 -26 q 190 79 311 -26 q 84 243 122 139 q 46 471 46 347 q 90 702 46 599 q 213 860 135 806 q 375 927 272 901 q 585 953 478 953 m 715 442 q 574 618 715 618 q 432 443 432 618 q 574 267 432 267 q 715 442 715 267 z "},"1":{"ha":749,"x_min":28,"x_max":675,"o":"m 675 0 l 218 0 l 218 503 l 28 439 l 28 764 l 243 926 l 675 926 l 675 0 z "},"2":{"ha":1063,"x_min":46,"x_max":1017,"o":"m 1017 0 l 68 0 l 68 253 q 467 426 319 338 q 557 495 532 467 q 582 558 582 524 q 558 618 582 596 q 493 640 533 640 q 383 547 406 640 q 378 476 378 525 l 49 476 q 46 540 46 529 q 189 860 46 756 q 554 946 308 946 q 907 856 799 946 q 1014 631 1014 765 q 843 376 1014 464 q 588 274 760 335 l 1017 274 l 1017 0 z "},"3":{"ha":1043,"x_min":28,"x_max":997,"o":"m 43 40 l 28 263 q 303 224 161 224 q 444 242 400 224 q 488 304 488 261 q 282 388 488 388 q 115 381 199 388 l 115 444 l 406 638 l 43 638 l 43 926 l 964 926 l 964 703 l 661 507 l 722 508 q 927 453 857 508 q 997 290 997 397 q 858 56 997 135 q 501 -19 726 -19 q 43 40 278 -19 z "},"4":{"ha":1169,"x_min":46,"x_max":1140,"o":"m 1014 0 l 563 0 l 563 131 l 46 131 l 46 503 l 403 926 l 1014 926 l 1014 394 l 1140 394 l 1140 131 l 1014 131 l 1014 0 m 576 374 l 576 663 l 350 374 l 576 374 z "},"5":{"ha":1074,"x_min":69,"x_max":1028,"o":"m 69 33 l 69 239 q 335 213 240 213 q 483 229 440 213 q 525 289 525 246 q 310 374 525 374 q 69 360 181 374 l 69 926 l 981 926 l 981 638 l 432 638 l 432 556 q 568 560 524 560 q 768 547 694 560 q 903 500 842 533 q 1028 288 1028 432 q 863 46 1028 125 q 513 -19 732 -19 q 69 33 253 -19 z "},"6":{"ha":1117,"x_min":46,"x_max":1075,"o":"m 1033 907 l 1033 639 q 713 669 863 669 q 547 647 590 669 q 496 561 503 625 q 704 589 606 589 q 993 518 911 589 q 1075 314 1075 449 q 1031 140 1075 215 q 908 28 986 64 q 571 -19 799 -19 q 311 3 406 -19 q 157 81 217 26 q 46 429 46 179 q 173 826 46 707 q 593 946 300 946 q 1033 907 817 946 m 479 379 l 479 294 q 490 219 479 240 q 526 183 500 197 q 579 169 551 169 q 668 217 642 169 q 683 301 683 243 q 660 378 683 354 q 583 403 636 403 q 479 379 536 403 z "},"7":{"ha":1004,"x_min":38,"x_max":967,"o":"m 536 0 l 117 0 l 438 563 l 38 563 l 38 926 l 967 926 l 967 610 l 536 0 z "},"8":{"ha":1150,"x_min":46,"x_max":1104,"o":"m 254 461 q 126 511 165 479 q 54 682 54 568 q 182 881 54 817 q 575 946 310 946 q 968 881 840 946 q 1096 682 1096 817 q 1024 511 1096 568 q 896 461 985 479 q 1032 401 983 444 q 1104 243 1104 340 q 1073 124 1104 178 q 988 43 1042 71 q 830 -6 922 8 q 575 -19 738 -19 q 320 -6 413 -19 q 163 43 228 8 q 78 125 110 71 q 46 243 46 179 q 118 401 46 340 q 254 461 167 444 m 582 706 q 490 680 522 706 q 457 607 457 654 q 489 532 457 558 q 581 506 521 506 q 671 532 639 506 q 703 607 703 558 q 670 679 703 653 q 582 706 638 706 m 582 379 q 460 285 460 379 q 579 188 460 188 q 699 283 699 188 q 582 379 699 379 z "},"9":{"ha":1100,"x_min":42,"x_max":1054,"o":"m 115 18 l 88 254 q 457 215 289 215 q 622 297 622 215 q 621 315 622 308 q 414 293 544 293 q 128 363 214 293 q 42 597 42 433 q 160 865 42 783 q 547 946 278 946 q 915 856 808 946 q 1017 700 981 799 q 1054 479 1054 601 q 933 107 1054 235 q 769 10 869 40 q 510 -19 669 -19 q 115 18 313 -19 m 636 497 l 636 579 q 613 676 636 647 q 533 704 589 704 q 456 676 483 704 q 428 594 428 647 q 536 490 428 490 q 636 497 589 490 z "}," ":{"ha":417,"x_min":0,"x_max":0,"o":""},"!":{"ha":622,"x_min":79,"x_max":543,"o":"m 457 306 l 165 306 l 82 813 q 79 857 79 840 q 123 963 79 939 q 314 986 167 986 q 500 962 457 986 q 543 857 543 938 q 539 813 543 833 l 457 306 m 311 240 q 492 117 492 240 q 444 22 492 56 q 308 -12 396 -12 q 177 22 225 -12 q 129 117 129 57 q 174 210 129 181 q 311 240 218 240 z "},"\"":{"ha":726,"x_min":32,"x_max":696,"o":"m 288 551 l 81 551 l 35 839 q 32 868 32 849 q 60 937 32 921 q 186 953 89 953 q 308 937 281 953 q 336 868 336 921 q 333 839 336 858 l 288 551 m 647 551 l 440 551 l 394 839 q 392 868 392 858 q 420 937 392 921 q 546 953 449 953 q 668 937 640 953 q 696 868 696 921 q 693 839 696 858 l 647 551 z "},"#":{"ha":857,"x_min":0,"x_max":857,"o":"m 643 224 l 611 0 l 406 0 l 436 224 l 332 224 l 300 0 l 93 0 l 125 224 l 0 224 l 29 426 l 154 426 l 167 521 l 42 521 l 71 724 l 196 724 l 224 926 l 431 926 l 401 724 l 507 724 l 535 926 l 742 926 l 713 724 l 857 724 l 828 521 l 685 521 l 671 426 l 815 426 l 786 224 l 643 224 m 478 521 l 374 521 l 360 426 l 465 426 l 478 521 z "},"$":{"ha":1064,"x_min":39,"x_max":1025,"o":"m 471 -185 l 471 -18 q 63 28 264 -12 l 63 282 q 525 236 318 236 q 585 278 585 236 q 573 304 585 297 q 525 311 561 311 l 456 311 q 299 322 396 311 q 88 429 149 340 q 39 606 39 497 q 141 851 39 771 q 471 943 243 931 l 471 1079 l 592 1079 l 592 946 q 992 900 818 938 l 992 628 q 656 660 806 660 l 561 660 q 482 617 482 660 q 494 590 482 600 q 528 579 507 579 l 678 579 q 893 544 808 579 q 989 456 953 519 q 1025 314 1025 393 q 965 128 1025 208 q 797 11 904 49 q 592 -18 729 -12 l 592 -185 l 471 -185 z "},"%":{"ha":1485,"x_min":56,"x_max":1429,"o":"m 368 940 q 601 879 526 940 q 681 696 681 810 q 615 531 681 592 q 371 463 543 463 q 119 531 192 463 q 56 699 56 590 q 135 879 56 811 q 368 940 208 940 m 368 801 q 286 711 286 801 q 306 639 286 661 q 368 617 325 617 q 431 639 411 617 q 450 710 450 661 q 431 779 450 757 q 368 801 411 801 m 1019 926 l 1214 926 l 472 0 l 278 0 l 1019 926 m 883 403 q 1117 464 958 464 q 1350 403 1275 464 q 1429 221 1429 335 q 1364 56 1429 117 q 1119 -12 1292 -12 q 868 56 940 -12 q 804 224 804 115 q 883 403 804 335 m 1117 325 q 1035 235 1035 325 q 1054 164 1035 186 q 1117 142 1074 142 q 1179 164 1160 142 q 1199 233 1199 186 q 1179 303 1199 281 q 1117 325 1160 325 z "},"&":{"ha":1418,"x_min":42,"x_max":1381,"o":"m 1381 0 l 822 0 l 742 82 q 569 3 649 26 q 390 -19 490 -19 q 134 49 226 -19 q 42 242 42 118 q 149 419 42 361 q 315 483 211 454 q 207 597 229 561 q 185 692 185 632 q 310 880 185 814 q 667 946 436 946 q 979 903 871 946 q 1070 835 1035 881 q 1106 740 1106 790 q 1069 641 1106 690 q 982 571 1033 592 q 817 528 933 550 l 868 483 l 1378 483 l 1113 267 l 1381 0 m 689 631 q 761 687 742 664 q 781 740 781 710 q 701 808 781 808 q 622 736 622 808 q 689 631 622 690 m 581 239 l 478 336 q 428 294 440 310 q 415 256 415 278 q 437 207 415 228 q 486 186 458 186 q 581 239 536 186 z "},"'":{"ha":367,"x_min":32,"x_max":336,"o":"m 288 551 l 81 551 l 35 839 q 32 868 32 849 q 60 937 32 921 q 186 953 89 953 q 308 937 281 953 q 336 868 336 921 q 333 839 336 858 l 288 551 z "},"(":{"ha":526,"x_min":56,"x_max":489,"o":"m 489 -40 l 236 -40 q 56 463 56 197 q 236 965 56 728 l 489 965 q 370 702 403 811 q 338 463 338 593 q 371 222 338 332 q 489 -40 404 113 z "},")":{"ha":526,"x_min":38,"x_max":471,"o":"m 290 -40 l 38 -40 q 156 222 124 113 q 189 463 189 332 q 156 703 189 593 q 38 965 124 813 l 290 965 q 471 463 471 731 q 290 -40 471 194 z "},"*":{"ha":694,"x_min":46,"x_max":649,"o":"m 251 397 l 110 503 l 208 644 l 46 688 l 93 850 l 258 804 l 258 965 l 436 965 l 436 804 l 601 850 l 649 688 l 486 644 l 585 503 l 443 397 l 347 532 l 251 397 z "},"+":{"ha":740,"x_min":21,"x_max":719,"o":"m 21 568 l 261 568 l 261 817 l 476 817 l 476 568 l 719 568 l 719 357 l 476 357 l 476 108 l 261 108 l 261 357 l 21 357 l 21 568 z "},",":{"ha":538,"x_min":75,"x_max":472,"o":"m 472 222 l 293 -185 l 75 -185 l 157 222 l 472 222 z "},"-":{"ha":472,"x_min":0,"x_max":472,"o":"m 472 268 l 0 268 l 0 528 l 472 528 l 472 268 z "},".":{"ha":493,"x_min":65,"x_max":428,"o":"m 246 240 q 383 210 339 240 q 428 117 428 181 q 380 22 428 56 q 244 -12 332 -12 q 113 22 160 -12 q 65 118 65 57 q 246 240 65 240 z "},"/":{"ha":744,"x_min":-47,"x_max":733,"o":"m -47 -40 l 454 965 l 733 965 l 232 -40 l -47 -40 z "},":":{"ha":493,"x_min":65,"x_max":428,"o":"m 246 788 q 383 758 339 788 q 428 664 428 728 q 380 567 428 601 q 244 533 332 533 q 113 568 160 533 q 65 664 65 603 q 246 788 65 788 m 246 240 q 383 210 339 240 q 428 117 428 181 q 380 22 428 56 q 244 -12 332 -12 q 113 22 160 -12 q 65 118 65 57 q 246 240 65 240 z "},";":{"ha":564,"x_min":65,"x_max":497,"o":"m 136 664 q 317 788 136 788 q 497 664 497 788 q 449 567 497 601 q 315 533 401 533 q 183 568 231 533 q 136 664 136 603 m 463 222 l 283 -185 l 65 -185 l 147 222 l 463 222 z "},"<":{"ha":694,"x_min":46,"x_max":647,"o":"m 647 944 l 647 642 l 367 471 l 646 299 l 647 -1 l 46 346 l 46 597 l 647 944 z "},"=":{"ha":740,"x_min":21,"x_max":719,"o":"m 21 731 l 719 731 l 719 519 l 21 519 l 21 731 m 21 407 l 719 407 l 719 196 l 21 196 l 21 407 z "},">":{"ha":694,"x_min":46,"x_max":647,"o":"m 46 -1 l 46 300 l 328 472 l 47 644 l 46 944 l 647 597 l 647 344 l 46 -1 z "},"?":{"ha":794,"x_min":38,"x_max":758,"o":"m 543 300 l 186 300 l 279 429 q 350 588 350 526 q 316 650 350 632 q 196 668 282 668 q 38 649 129 668 l 38 961 q 392 986 194 986 q 669 936 585 986 q 735 865 711 913 q 758 761 758 818 q 741 658 758 708 q 674 514 724 607 q 543 300 599 376 m 178 117 q 358 240 178 240 q 539 117 539 240 q 491 22 539 56 q 357 -12 443 -12 q 225 22 272 -12 q 178 117 178 56 z "},"@":{"ha":1306,"x_min":32,"x_max":1274,"o":"m 956 658 l 890 406 q 1068 461 1018 406 q 1115 588 1115 515 q 1085 688 1115 642 q 1006 758 1056 735 q 674 815 888 815 q 325 728 439 815 q 211 463 211 642 q 324 197 211 283 q 674 111 438 111 q 1031 204 911 111 l 1253 204 q 1153 90 1211 131 q 672 -26 983 -26 q 190 90 353 -26 q 73 242 114 146 q 32 463 32 339 q 208 846 32 732 q 671 953 374 953 q 1117 856 956 953 q 1231 738 1188 813 q 1274 583 1274 664 q 1231 430 1274 501 q 1115 319 1188 358 q 854 268 1017 268 l 663 268 l 682 343 q 618 278 654 297 q 522 258 582 258 q 388 368 388 258 q 413 505 388 426 q 468 615 439 583 q 615 668 519 668 q 710 649 681 668 q 744 583 740 629 l 764 658 l 956 658 m 672 533 q 610 505 633 533 q 586 431 586 476 q 631 394 586 394 q 697 426 678 394 q 718 497 718 460 q 672 533 718 533 z "},"A":{"ha":1315,"x_min":-11,"x_max":1331,"o":"m 1331 0 l 851 0 l 818 119 l 508 119 l 475 0 l -11 0 l 285 926 l 1039 926 l 1331 0 m 763 372 l 667 665 l 567 372 l 763 372 z "},"B":{"ha":1381,"x_min":90,"x_max":1317,"o":"m 90 0 l 90 926 l 1038 926 q 1232 869 1161 926 q 1310 706 1310 804 q 1210 519 1310 588 q 1054 460 1154 482 q 1211 422 1156 451 q 1288 352 1260 400 q 1317 247 1317 304 q 1222 67 1317 135 q 971 0 1128 0 l 90 0 m 567 544 l 744 544 q 813 560 793 544 q 833 614 833 575 q 813 667 833 651 q 744 682 793 682 l 567 682 l 567 544 m 567 222 l 768 222 q 831 238 813 222 q 850 290 850 254 q 831 342 850 326 q 768 358 813 358 l 567 358 l 567 222 z "},"C":{"ha":1189,"x_min":54,"x_max":1158,"o":"m 1142 333 l 1142 13 q 736 -19 946 -19 q 427 5 540 -19 q 232 89 314 29 q 101 251 149 150 q 54 471 54 353 q 99 683 54 585 q 224 838 144 781 q 657 946 374 946 q 1158 903 874 946 l 1158 540 q 801 576 947 576 q 611 543 668 576 q 554 431 554 510 q 611 326 554 357 q 810 296 668 296 q 1142 333 979 296 z "},"D":{"ha":1410,"x_min":90,"x_max":1356,"o":"m 90 0 l 90 926 l 899 926 q 1240 804 1119 926 q 1356 493 1356 686 q 1172 115 1356 247 q 783 0 1015 0 l 90 0 m 567 278 l 639 278 q 788 310 736 278 q 863 458 863 356 q 703 607 863 607 l 567 607 l 567 278 z "},"E":{"ha":1199,"x_min":90,"x_max":1153,"o":"m 1153 0 l 90 0 l 90 926 l 1153 926 l 1153 629 l 567 629 l 567 543 l 1153 543 l 1153 321 l 567 321 l 567 243 l 1153 243 l 1153 0 z "},"F":{"ha":1171,"x_min":90,"x_max":1138,"o":"m 1138 240 l 567 240 l 567 0 l 90 0 l 90 926 l 1138 926 l 1138 615 l 567 615 l 567 522 l 1138 522 l 1138 240 z "},"G":{"ha":1279,"x_min":54,"x_max":1208,"o":"m 1208 467 l 1208 49 q 708 -19 919 -19 q 251 76 422 -19 q 54 467 54 188 q 225 833 54 713 q 682 946 383 946 q 1193 889 944 946 l 1193 567 q 811 607 994 607 q 586 558 656 607 q 513 410 513 511 q 569 274 513 324 q 721 224 625 224 q 778 226 736 224 l 778 467 l 1208 467 z "},"H":{"ha":1374,"x_min":90,"x_max":1282,"o":"m 1282 0 l 806 0 l 806 288 l 567 288 l 567 0 l 90 0 l 90 926 l 567 926 l 567 599 l 806 599 l 806 926 l 1282 926 l 1282 0 z "},"I":{"ha":664,"x_min":93,"x_max":569,"o":"m 569 0 l 93 0 l 93 926 l 569 926 l 569 0 z "},"J":{"ha":894,"x_min":21,"x_max":808,"o":"m 21 19 l 21 328 q 179 304 111 304 q 301 336 269 304 q 332 463 332 368 l 332 926 l 808 926 l 808 307 q 706 58 808 136 q 378 -19 603 -19 q 21 19 203 -19 z "},"K":{"ha":1333,"x_min":90,"x_max":1358,"o":"m 1333 0 l 794 0 l 567 296 l 567 0 l 90 0 l 90 926 l 567 926 l 567 569 l 794 926 l 1358 926 l 969 450 l 1333 0 z "},"L":{"ha":1003,"x_min":90,"x_max":972,"o":"m 972 0 l 90 0 l 90 926 l 567 926 l 567 328 l 972 328 l 972 0 z "},"M":{"ha":1672,"x_min":90,"x_max":1581,"o":"m 1581 0 l 1125 0 l 1125 476 l 963 0 l 703 0 l 540 461 l 540 0 l 90 0 l 90 926 l 688 926 l 832 476 l 978 926 l 1581 926 l 1581 0 z "},"N":{"ha":1374,"x_min":90,"x_max":1282,"o":"m 1282 0 l 863 0 l 540 415 l 540 0 l 90 0 l 90 926 l 568 926 l 832 539 l 832 926 l 1282 926 l 1282 0 z "},"O":{"ha":1386,"x_min":54,"x_max":1333,"o":"m 690 953 q 1176 831 1018 953 q 1333 457 1333 710 q 1292 241 1333 338 q 1175 90 1250 144 q 693 -26 1013 -26 q 213 90 375 -26 q 54 463 54 206 q 231 846 54 733 q 690 953 396 953 m 693 639 q 575 593 615 639 q 535 460 535 547 q 693 242 535 242 q 853 458 853 242 q 693 639 853 639 z "},"P":{"ha":1351,"x_min":90,"x_max":1319,"o":"m 567 0 l 90 0 l 90 926 l 961 926 q 1226 842 1132 926 q 1319 603 1319 757 q 1281 428 1319 508 q 1174 300 1243 349 q 796 211 1046 211 l 567 211 l 567 0 m 567 465 l 721 465 q 854 569 854 465 q 828 636 854 613 q 756 660 803 660 l 567 660 l 567 465 z "},"Q":{"ha":1386,"x_min":54,"x_max":1333,"o":"m 660 -185 l 560 -19 q 313 35 403 -3 q 54 464 54 143 q 231 846 54 732 q 693 953 396 953 q 1157 846 992 953 q 1333 464 1333 732 q 1240 153 1333 268 q 953 -1 1146 39 l 1053 -185 l 660 -185 m 694 639 q 535 461 535 639 q 693 242 535 242 q 853 458 853 242 q 694 639 853 639 z "},"R":{"ha":1378,"x_min":90,"x_max":1347,"o":"m 1347 0 l 794 0 l 567 293 l 567 0 l 90 0 l 90 926 l 983 926 q 1218 865 1142 926 q 1292 774 1265 829 q 1318 657 1318 719 q 1217 451 1318 531 q 1028 385 1146 397 l 1347 0 m 567 488 l 713 488 q 803 504 774 488 q 846 592 846 531 q 822 659 846 639 q 740 679 797 679 l 567 679 l 567 488 z "},"S":{"ha":1178,"x_min":39,"x_max":1135,"o":"m 64 28 l 64 282 q 582 238 354 238 q 646 279 646 238 q 632 304 646 297 q 581 311 618 311 l 503 311 q 328 322 436 311 q 93 428 161 340 q 39 606 39 496 q 149 850 39 768 q 610 946 278 946 q 1099 900 864 946 l 1099 628 q 725 660 893 660 l 621 660 q 532 618 532 660 q 546 590 532 600 q 583 579 560 579 l 750 579 q 989 544 892 579 q 1094 456 1054 519 q 1135 314 1135 393 q 1097 171 1135 238 q 990 61 1058 104 q 828 -2 918 15 q 578 -19 738 -19 q 64 28 324 -19 z "},"T":{"ha":1014,"x_min":-10,"x_max":1024,"o":"m 744 0 l 268 0 l 268 558 l -10 558 l -10 926 l 1024 926 l 1024 558 l 744 558 l 744 0 z "},"U":{"ha":1315,"x_min":86,"x_max":1229,"o":"m 86 926 l 563 926 l 563 357 q 576 276 563 296 q 658 244 599 244 q 739 276 717 244 q 753 357 753 296 l 753 926 l 1229 926 l 1229 367 q 1207 189 1229 249 q 1125 83 1185 129 q 658 -19 990 -19 q 174 97 303 -19 q 104 201 122 143 q 86 379 86 258 l 86 926 z "},"V":{"ha":1257,"x_min":-15,"x_max":1274,"o":"m 978 0 l 290 0 l -15 926 l 476 926 l 636 353 l 783 926 l 1274 926 l 978 0 z "},"W":{"ha":1640,"x_min":-15,"x_max":1656,"o":"m 1399 0 l 933 0 l 817 422 l 699 0 l 244 0 l -15 926 l 464 926 l 560 468 l 671 926 l 985 926 l 1088 483 l 1186 926 l 1656 926 l 1399 0 z "},"X":{"ha":1293,"x_min":-24,"x_max":1317,"o":"m 1296 0 l 775 0 l 650 217 l 511 0 l -10 0 l 314 449 l -24 926 l 533 926 l 650 678 l 775 926 l 1317 926 l 976 449 l 1296 0 z "},"Y":{"ha":1250,"x_min":-15,"x_max":1265,"o":"m 865 0 l 390 0 l 390 267 l -15 926 l 517 926 l 640 646 l 751 926 l 1265 926 l 865 267 l 865 0 z "},"Z":{"ha":1107,"x_min":38,"x_max":1072,"o":"m 1072 0 l 38 0 l 38 207 l 460 601 l 38 601 l 38 926 l 1072 926 l 1072 650 l 675 303 l 1072 303 l 1072 0 z "},"[":{"ha":546,"x_min":106,"x_max":489,"o":"m 489 965 l 489 761 l 339 761 l 339 164 l 489 164 l 489 -40 l 106 -40 l 106 965 l 489 965 z "},"\\":{"ha":744,"x_min":11,"x_max":792,"o":"m 792 -40 l 513 -40 l 11 965 l 290 965 l 792 -40 z "},"]":{"ha":546,"x_min":57,"x_max":439,"o":"m 57 -40 l 57 164 l 206 164 l 206 761 l 57 761 l 57 965 l 439 965 l 439 -40 l 57 -40 z "},"^":{"ha":694,"x_min":0,"x_max":696,"o":"m 263 456 l 0 456 l 181 933 l 515 933 l 696 456 l 433 456 l 349 731 l 263 456 z "},"_":{"ha":694,"x_min":0,"x_max":694,"o":"m 0 -62 l 694 -62 l 694 -235 l 0 -235 l 0 -62 z "},"`":{"ha":694,"x_min":3,"x_max":582,"o":"m 582 860 l 213 860 l 3 1022 l 485 1022 l 582 860 z "},"a":{"ha":1239,"x_min":47,"x_max":1192,"o":"m 1192 0 l 742 0 l 742 99 q 607 6 678 32 q 421 -19 536 -19 q 229 13 304 -19 q 110 114 154 44 q 47 390 47 213 q 147 708 47 611 q 431 800 243 800 q 742 671 643 800 l 742 781 l 1192 781 l 1192 0 m 717 487 q 699 507 717 487 q 621 526 682 526 q 525 488 560 526 q 490 381 490 449 q 525 262 490 304 q 621 219 560 219 q 717 262 682 219 q 751 378 751 304 q 717 487 751 447 z "},"b":{"ha":1264,"x_min":75,"x_max":1219,"o":"m 75 0 l 75 965 l 525 965 l 525 671 q 836 800 624 800 q 1119 708 1024 800 q 1219 390 1219 610 q 1157 114 1219 217 q 846 -19 1072 -19 q 660 6 731 -19 q 525 99 589 32 l 525 0 l 75 0 m 742 487 q 724 507 742 487 q 646 526 707 526 q 550 488 585 526 q 515 381 515 449 q 550 262 515 304 q 646 219 585 219 q 742 262 707 219 q 776 378 776 304 q 742 487 776 447 z "},"c":{"ha":1042,"x_min":44,"x_max":1001,"o":"m 1001 297 l 996 38 q 621 -21 811 -21 q 243 39 371 -21 q 97 177 149 82 q 44 400 44 272 q 81 585 44 503 q 182 708 118 667 q 611 801 328 801 q 996 761 779 801 l 1001 456 q 701 482 829 482 q 576 471 622 482 q 517 433 540 461 q 494 365 494 404 q 537 282 494 311 q 657 253 579 253 q 1001 297 786 253 z "},"d":{"ha":1264,"x_min":44,"x_max":1189,"o":"m 1189 0 l 739 0 l 739 99 q 604 6 675 32 q 418 -19 533 -19 q 107 114 192 -19 q 44 390 44 213 q 144 708 44 611 q 428 800 240 800 q 739 671 640 800 l 739 965 l 1189 965 l 1189 0 m 714 487 q 697 507 714 487 q 618 526 679 526 q 522 488 557 526 q 488 381 488 449 q 522 262 488 304 q 618 219 557 219 q 714 262 679 219 q 749 378 749 304 q 714 487 749 447 z "},"e":{"ha":1182,"x_min":44,"x_max":1138,"o":"m 1135 261 l 1042 47 q 564 -19 751 -19 q 179 75 313 -19 q 44 375 44 171 q 86 574 44 483 q 200 713 128 664 q 615 800 328 800 q 1060 658 947 800 q 1116 537 1094 615 q 1138 374 1138 458 q 1135 304 1138 365 l 519 304 q 556 222 519 244 q 688 199 592 199 q 1135 261 885 199 m 499 483 l 776 483 q 757 561 775 533 q 643 613 724 613 q 542 582 576 613 q 499 483 508 551 z "},"f":{"ha":847,"x_min":4,"x_max":838,"o":"m 563 0 l 113 0 l 113 310 l 4 310 l 4 621 l 113 621 l 113 763 q 196 928 113 881 q 331 974 257 964 q 588 985 404 985 q 838 976 665 985 l 838 733 q 710 740 756 740 q 594 724 625 740 q 563 663 563 707 l 563 621 l 838 621 l 838 310 l 563 310 l 563 0 z "},"g":{"ha":1272,"x_min":44,"x_max":1197,"o":"m 1197 781 l 1197 146 q 1072 -118 1197 -37 q 531 -200 944 -200 q 126 -181 344 -200 l 101 32 q 456 -8 272 -8 q 731 60 681 -8 q 747 129 747 82 q 610 74 679 90 q 442 58 542 58 q 149 138 238 58 q 44 425 44 229 q 150 721 44 628 q 439 800 242 800 q 629 774 558 800 q 747 689 700 749 l 747 781 l 1197 781 m 610 581 q 514 541 549 581 q 479 433 479 501 q 514 315 479 357 q 610 272 549 272 q 706 315 671 272 q 740 432 740 357 q 705 541 740 501 q 610 581 669 581 z "},"h":{"ha":1276,"x_min":75,"x_max":1201,"o":"m 1201 0 l 751 0 l 751 382 q 726 464 751 439 q 643 489 701 489 q 553 461 581 489 q 525 372 525 433 l 525 0 l 75 0 l 75 965 l 525 965 l 525 663 q 658 769 582 739 q 861 800 733 800 q 1118 722 1035 800 q 1201 485 1201 644 l 1201 0 z "},"i":{"ha":600,"x_min":75,"x_max":525,"o":"m 525 0 l 75 0 l 75 794 q 300 781 157 781 q 525 794 443 781 l 525 0 m 525 950 l 525 864 q 515 833 525 840 q 469 825 504 825 l 146 825 q 101 833 111 825 q 90 864 90 840 l 90 950 q 101 981 90 974 q 146 989 111 989 l 469 989 q 515 981 504 989 q 525 950 525 974 z "},"j":{"ha":603,"x_min":-17,"x_max":533,"o":"m -17 -181 l -17 40 q 22 36 17 36 q 81 71 68 36 q 85 154 85 85 l 85 794 q 304 781 171 781 q 533 794 447 781 l 533 118 q 518 -37 533 15 q 464 -124 503 -89 q 355 -172 425 -158 q 149 -185 285 -185 q -17 -181 100 -185 m 533 950 l 533 864 q 524 832 533 839 q 478 825 514 825 l 154 825 q 109 833 119 825 q 99 864 99 840 l 99 950 q 109 981 99 974 q 154 989 119 989 l 478 989 q 524 982 514 989 q 533 950 533 975 z "},"k":{"ha":1192,"x_min":75,"x_max":1215,"o":"m 1160 0 l 693 0 l 525 263 l 525 0 l 75 0 l 75 965 l 525 965 l 525 460 l 693 781 l 1215 781 l 919 385 l 1160 0 z "},"l":{"ha":600,"x_min":75,"x_max":525,"o":"m 525 0 l 75 0 l 75 965 l 525 965 l 525 0 z "},"m":{"ha":1913,"x_min":75,"x_max":1838,"o":"m 1838 0 l 1388 0 l 1388 375 q 1368 466 1388 443 q 1292 489 1349 489 q 1207 463 1231 489 q 1183 369 1183 436 l 1183 0 l 733 0 l 733 358 q 710 455 733 429 q 626 481 688 481 q 547 456 569 481 q 525 371 525 432 l 525 0 l 75 0 l 75 781 l 496 781 l 496 651 q 632 768 560 736 q 829 800 704 800 q 1078 735 1000 800 q 1143 629 1117 700 q 1229 738 1182 704 q 1481 800 1315 800 q 1750 724 1663 800 q 1838 490 1838 647 l 1838 0 z "},"n":{"ha":1276,"x_min":75,"x_max":1201,"o":"m 1201 0 l 751 0 l 751 382 q 726 464 751 439 q 643 489 701 489 q 553 461 581 489 q 525 372 525 433 l 525 0 l 75 0 l 75 781 l 525 781 l 525 663 q 658 769 582 739 q 861 800 733 800 q 1118 722 1035 800 q 1201 485 1201 644 l 1201 0 z "},"o":{"ha":1200,"x_min":44,"x_max":1156,"o":"m 613 807 q 853 788 765 807 q 1011 718 942 768 q 1156 400 1156 617 q 1017 72 1156 179 q 606 -26 889 -26 q 176 76 308 -26 q 44 408 44 178 q 174 707 44 614 q 348 783 246 760 q 613 807 450 807 m 604 542 q 461 397 461 542 q 604 222 461 222 q 747 394 747 222 q 713 506 747 471 q 604 542 678 542 z "},"p":{"ha":1264,"x_min":75,"x_max":1219,"o":"m 75 -185 l 75 781 l 525 781 l 525 671 q 836 800 624 800 q 1119 708 1024 800 q 1219 390 1219 610 q 1157 114 1219 217 q 1038 13 1113 44 q 846 -19 963 -19 q 659 6 729 -19 q 525 99 589 32 l 525 -185 l 75 -185 m 742 487 q 724 507 742 487 q 646 526 707 526 q 550 487 585 526 q 515 378 515 447 q 550 262 515 304 q 646 219 585 219 q 742 262 707 219 q 776 376 776 304 q 742 487 776 447 z "},"q":{"ha":1264,"x_min":44,"x_max":1189,"o":"m 1189 -185 l 739 -185 l 739 99 q 604 6 675 32 q 418 -19 533 -19 q 226 13 301 -19 q 107 114 151 44 q 44 390 44 213 q 144 708 44 611 q 428 800 240 800 q 739 671 640 800 l 739 781 l 1189 781 l 1189 -185 m 714 487 q 697 507 714 487 q 618 526 679 526 q 522 488 557 526 q 488 381 488 449 q 522 262 488 304 q 618 219 557 219 q 714 262 679 219 q 749 378 749 304 q 714 487 749 447 z "},"r":{"ha":872,"x_min":75,"x_max":847,"o":"m 525 0 l 75 0 l 75 781 l 494 781 l 494 582 q 597 768 525 718 q 751 801 644 801 q 847 794 792 801 l 847 360 q 686 357 731 361 q 606 338 642 353 q 542 288 558 318 q 525 196 525 258 l 525 0 z "},"s":{"ha":1025,"x_min":29,"x_max":996,"o":"m 960 782 l 960 535 q 626 553 807 553 q 495 547 525 553 q 465 521 465 540 q 485 500 465 504 q 560 496 500 496 l 639 496 q 839 486 807 493 q 956 417 915 472 q 996 272 996 363 q 959 125 996 189 q 858 32 922 61 q 500 -19 743 -19 q 81 8 326 -19 l 63 238 q 408 211 282 211 q 569 217 556 211 q 583 240 583 221 q 544 265 583 265 l 458 264 q 149 307 228 264 q 29 528 29 369 q 153 750 29 683 q 536 800 244 800 q 960 782 776 800 z "},"t":{"ha":925,"x_min":0,"x_max":893,"o":"m 839 233 l 782 15 q 429 -19 617 -19 q 202 28 269 -19 q 135 189 135 76 l 135 468 l 0 468 l 0 626 l 336 926 l 583 926 l 583 781 l 893 781 l 893 468 l 583 468 l 583 307 q 606 239 583 253 q 714 225 628 225 q 839 233 775 225 z "},"u":{"ha":1235,"x_min":75,"x_max":1160,"o":"m 1160 781 l 1160 307 q 1051 68 1160 142 q 618 -19 918 -19 q 183 68 317 -19 q 75 307 75 142 l 75 781 l 525 781 l 525 333 q 545 242 525 267 q 618 217 565 217 q 690 242 671 217 q 710 333 710 267 l 710 781 l 1160 781 z "},"v":{"ha":1153,"x_min":-1,"x_max":1156,"o":"m 889 0 l 267 0 l -1 781 l 461 781 l 579 294 l 694 781 l 1156 781 l 889 0 z "},"w":{"ha":1711,"x_min":-1,"x_max":1713,"o":"m 1471 0 l 961 0 l 856 368 l 756 0 l 226 0 l -1 781 l 458 781 l 551 368 l 657 781 l 1040 781 l 1150 368 l 1246 781 l 1713 781 l 1471 0 z "},"x":{"ha":1207,"x_min":-26,"x_max":1224,"o":"m 1206 0 l 722 0 l 604 211 l 481 0 l 1 0 l 274 393 l -26 781 l 481 781 l 604 568 l 722 781 l 1224 781 l 932 393 l 1206 0 z "},"y":{"ha":1208,"x_min":-1,"x_max":1213,"o":"m 744 781 l 1213 781 l 922 161 q 749 -110 835 -28 q 651 -169 703 -153 q 503 -185 599 -185 l 88 -185 l 88 61 l 375 61 l -1 781 l 467 781 l 618 394 l 744 781 z "},"z":{"ha":1008,"x_min":42,"x_max":968,"o":"m 968 0 l 42 0 l 42 182 l 414 465 l 54 465 l 54 781 l 956 781 l 956 536 l 628 269 l 968 269 l 968 0 z "},"{":{"ha":546,"x_min":58,"x_max":468,"o":"m 353 683 l 353 611 q 339 524 353 553 q 283 464 325 494 q 338 405 324 436 q 353 315 353 374 l 353 242 q 367 176 353 186 q 468 167 382 167 l 468 -36 l 426 -37 l 389 -39 q 332 -40 372 -40 q 224 -33 257 -40 q 165 -4 192 -26 q 121 126 121 31 l 121 269 q 107 339 121 317 q 58 367 93 361 l 58 572 q 105 596 93 579 q 121 657 117 613 l 121 797 q 174 938 121 899 q 230 961 199 956 q 332 967 261 967 q 426 964 364 967 l 468 963 l 468 758 q 438 760 454 760 q 365 748 378 760 q 353 683 353 736 z "},"|":{"ha":694,"x_min":194,"x_max":500,"o":"m 194 926 l 500 926 l 500 -232 l 194 -232 l 194 926 z "},"}":{"ha":546,"x_min":78,"x_max":488,"o":"m 193 243 l 193 315 q 207 403 193 375 q 263 463 221 432 q 208 522 222 490 q 193 611 193 553 l 193 685 q 180 748 193 736 q 106 760 167 760 l 78 760 l 78 963 l 119 964 l 157 965 q 214 967 174 967 q 322 960 289 967 q 381 931 354 953 q 425 800 425 894 l 425 657 q 439 588 425 610 q 488 558 453 565 l 488 354 q 441 331 453 347 q 425 269 429 314 l 425 129 q 372 -11 425 28 q 316 -35 347 -29 q 214 -40 285 -40 q 119 -37 182 -40 q 78 -36 99 -37 l 78 168 q 108 167 92 167 q 180 178 167 167 q 193 243 193 190 z "},"~":{"ha":926,"x_min":126,"x_max":804,"o":"m 269 729 l 126 851 q 223 1021 171 969 q 351 1072 275 1072 q 402 1065 378 1072 q 549 1017 426 1058 q 589 1008 575 1008 q 624 1021 611 1008 q 661 1076 638 1033 l 804 956 q 708 788 757 838 q 581 732 653 732 q 376 790 550 732 q 339 797 356 797 q 269 729 304 797 z "}," ":{"ha":417,"x_min":0,"x_max":0,"o":""},"¡":{"ha":622,"x_min":79,"x_max":543,"o":"m 457 667 l 539 161 q 543 115 543 138 q 499 11 543 35 q 308 -12 456 -12 q 122 12 165 -12 q 79 117 79 36 q 82 161 79 131 l 165 667 l 457 667 m 313 986 q 444 951 397 986 q 492 856 492 917 q 311 732 492 732 q 131 856 131 732 q 178 952 131 918 q 313 986 226 986 z "},"¢":{"ha":1038,"x_min":42,"x_max":999,"o":"m 521 -112 l 521 68 q 240 124 338 81 q 94 262 146 167 q 42 486 42 357 q 124 744 42 647 q 521 885 228 868 l 521 1051 l 635 1051 l 635 886 q 993 847 797 883 l 999 542 q 701 568 818 568 q 575 557 619 568 q 516 519 539 547 q 493 451 493 490 q 535 368 493 397 q 654 339 576 339 q 999 383 785 339 l 992 122 q 635 65 822 68 l 635 -112 l 521 -112 z "},"£":{"ha":1115,"x_min":10,"x_max":1089,"o":"m 908 304 l 1089 188 q 1042 127 1065 150 q 976 75 1019 104 q 692 -18 840 -18 q 610 -11 640 -18 q 463 35 581 -4 q 314 68 363 68 q 164 -19 221 68 l 10 118 q 214 304 85 288 l 193 399 l 78 399 l 78 510 l 167 510 l 161 543 q 154 617 154 582 q 261 865 154 779 q 615 953 368 953 q 948 873 844 953 q 1065 607 1051 793 l 726 586 q 711 710 726 681 q 644 739 696 739 q 553 607 553 739 q 557 510 553 585 l 726 510 l 726 399 l 553 399 q 528 324 547 363 q 635 274 578 303 q 706 241 681 249 q 769 233 732 233 q 839 249 810 233 q 908 304 868 264 z "},"¤":{"ha":1028,"x_min":31,"x_max":999,"o":"m 31 149 l 181 299 q 142 467 142 381 q 186 646 142 560 l 33 799 l 188 954 l 344 797 q 514 836 428 836 q 682 799 601 836 l 838 951 l 990 799 l 842 649 q 889 468 889 563 q 850 299 889 381 l 999 150 l 846 -4 l 699 143 q 503 96 608 96 q 332 142 424 96 l 183 -4 l 31 149 m 517 582 q 438 550 469 582 q 406 471 406 518 q 438 391 406 424 q 515 358 471 358 q 594 391 563 358 q 626 471 626 424 q 594 549 626 517 q 517 582 561 582 z "},"¥":{"ha":1065,"x_min":-15,"x_max":1081,"o":"m 297 249 l 75 249 l 75 358 l 299 358 l 257 433 l 75 433 l 75 543 l 196 543 l -15 926 l 453 926 l 547 739 l 631 926 l 1081 926 l 874 543 l 986 543 l 986 433 l 814 433 l 772 358 l 986 358 l 986 249 l 774 249 l 774 0 l 297 0 l 297 249 z "},"¦":{"ha":694,"x_min":194,"x_max":500,"o":"m 194 926 l 500 926 l 500 414 l 194 414 l 194 926 m 194 213 l 500 213 l 500 -232 l 194 -232 l 194 213 z "},"§":{"ha":861,"x_min":25,"x_max":835,"o":"m 797 906 l 797 701 q 490 724 567 724 q 359 713 397 724 q 321 676 321 703 q 343 649 321 656 q 532 628 372 640 q 692 609 650 618 q 761 579 735 600 q 829 417 829 522 q 772 251 829 329 q 835 99 835 185 q 718 -108 835 -42 q 438 -154 632 -154 q 64 -114 265 -154 l 64 90 q 371 68 300 68 q 501 79 464 68 q 539 117 539 90 q 518 143 539 136 q 250 176 511 146 q 89 228 126 192 q 29 381 29 285 q 94 542 29 468 q 25 699 25 603 q 51 805 25 754 q 124 888 78 856 q 413 946 206 946 q 797 906 599 946 m 283 460 q 274 425 274 436 q 350 364 274 372 q 542 340 526 343 q 568 336 551 340 q 576 371 576 356 q 518 431 576 422 q 331 453 482 436 q 283 460 321 454 z "},"¨":{"ha":694,"x_min":58,"x_max":636,"o":"m 58 863 l 58 1006 l 290 1006 l 290 863 l 58 863 m 404 863 l 404 1006 l 636 1006 l 636 863 l 404 863 z "},"©":{"ha":1143,"x_min":43,"x_max":1100,"o":"m 811 399 l 811 238 q 607 222 704 222 q 357 276 429 222 q 268 467 268 340 q 344 644 268 583 q 569 704 421 704 q 819 682 674 704 l 819 501 q 642 519 713 519 q 547 503 575 519 q 518 447 518 486 q 547 394 518 410 q 644 379 575 379 q 811 399 733 379 m 581 947 q 947 804 793 947 q 1100 463 1100 661 q 945 121 1100 263 q 572 -21 790 -21 q 198 121 353 -21 q 43 463 43 263 q 199 806 43 665 q 581 947 354 947 m 578 824 q 292 719 408 824 q 176 463 176 614 q 292 208 176 314 q 572 103 408 103 q 851 208 736 103 q 967 463 967 314 q 852 717 967 611 q 578 824 738 824 z "},"ª":{"ha":793,"x_min":36,"x_max":757,"o":"m 757 371 l 467 371 l 467 421 q 274 360 400 360 q 94 419 151 360 q 36 606 36 478 q 96 791 36 731 q 279 851 156 851 q 467 786 408 851 l 467 840 l 757 840 l 757 371 m 453 658 q 442 669 453 658 q 397 681 432 681 q 342 659 363 681 q 322 600 322 638 q 342 533 322 557 q 397 510 361 510 q 453 534 432 510 q 474 599 474 558 q 453 658 474 636 z "},"«":{"ha":876,"x_min":50,"x_max":818,"o":"m 182 119 l 50 393 l 182 675 l 433 675 l 304 393 l 433 119 l 182 119 m 565 119 l 433 393 l 565 675 l 818 675 l 688 393 l 818 119 l 565 119 z "},"¬":{"ha":694,"x_min":46,"x_max":647,"o":"m 351 0 l 351 156 l 46 156 l 46 421 l 647 421 l 647 0 l 351 0 z "},"­":{"ha":472,"x_min":0,"x_max":472,"o":"m 472 268 l 0 268 l 0 528 l 472 528 l 472 268 z "},"®":{"ha":1143,"x_min":43,"x_max":1100,"o":"m 844 232 l 624 232 l 510 378 l 510 232 l 300 232 l 300 694 l 690 694 q 807 664 769 694 q 857 560 857 626 q 819 467 857 503 q 713 424 781 431 l 844 232 m 510 475 l 582 475 q 649 528 649 475 q 596 571 649 571 l 510 571 l 510 475 m 581 947 q 947 804 793 947 q 1100 463 1100 661 q 945 121 1100 263 q 572 -21 790 -21 q 198 121 353 -21 q 43 463 43 263 q 199 806 43 665 q 581 947 354 947 m 578 824 q 292 719 408 824 q 176 463 176 614 q 292 208 176 314 q 572 103 408 103 q 851 208 736 103 q 967 463 967 314 q 852 717 967 611 q 578 824 738 824 z "},"¯":{"ha":694,"x_min":75,"x_max":621,"o":"m 621 860 l 75 860 l 75 1000 l 621 1000 l 621 860 z "},"°":{"ha":522,"x_min":24,"x_max":500,"o":"m 93 874 q 128 909 93 874 q 263 944 163 944 q 431 874 363 944 q 500 703 500 804 q 430 536 500 606 q 263 467 360 467 q 94 536 164 467 q 24 704 24 606 q 93 874 24 804 m 261 810 q 191 778 221 810 q 161 706 161 747 q 191 632 161 663 q 261 601 221 601 q 332 632 301 601 q 363 703 363 663 q 333 778 363 747 q 261 810 303 810 z "},"±":{"ha":740,"x_min":21,"x_max":719,"o":"m 21 568 l 261 568 l 261 817 l 476 817 l 476 568 l 719 568 l 719 357 l 476 357 l 476 229 l 261 229 l 261 357 l 21 357 l 21 568 m 21 211 l 719 211 l 719 0 l 21 0 l 21 211 z "},"²":{"ha":790,"x_min":89,"x_max":701,"o":"m 701 371 l 103 371 l 103 528 q 353 631 265 581 q 407 669 392 653 q 422 704 422 685 q 372 747 422 747 q 321 725 336 747 q 306 651 306 703 l 90 651 q 89 696 89 668 q 181 886 89 822 q 410 938 257 938 q 631 883 561 938 q 700 746 700 831 q 590 593 700 646 q 458 542 557 576 l 701 542 l 701 371 z "},"³":{"ha":789,"x_min":88,"x_max":700,"o":"m 97 396 l 88 538 q 265 513 175 513 q 374 556 374 513 q 254 600 374 600 q 143 594 203 600 l 143 640 l 313 747 l 97 747 l 97 926 l 679 926 l 679 788 l 504 679 q 524 681 513 681 q 655 646 610 681 q 700 547 700 611 q 619 408 700 457 q 386 360 538 360 q 97 396 246 360 z "},"´":{"ha":694,"x_min":114,"x_max":693,"o":"m 114 860 l 211 1022 l 693 1022 l 483 860 l 114 860 z "},"µ":{"ha":1111,"x_min":68,"x_max":1044,"o":"m 68 781 l 472 781 l 472 333 q 490 242 472 267 q 556 217 508 217 q 621 242 603 217 q 639 333 639 267 l 639 781 l 1044 781 l 1044 307 q 947 68 1044 142 q 558 -19 828 -19 q 458 -17 531 -19 l 458 -185 l 68 -185 l 68 781 z "},"¶":{"ha":994,"x_min":131,"x_max":828,"o":"m 393 -157 l 393 451 q 375 450 386 450 q 210 504 282 450 q 131 685 131 564 q 244 890 131 831 q 328 919 286 913 q 454 926 369 926 l 828 926 l 828 -157 l 643 -157 l 643 819 l 578 819 l 578 -157 l 393 -157 z "},"·":{"ha":493,"x_min":65,"x_max":428,"o":"m 246 524 q 383 494 339 524 q 428 400 428 464 q 380 303 428 338 q 244 269 332 269 q 113 304 160 269 q 65 400 65 339 q 246 524 65 524 z "},"¸":{"ha":694,"x_min":115,"x_max":579,"o":"m 406 -185 l 115 -185 l 293 38 l 579 38 l 406 -185 z "},"¹":{"ha":589,"x_min":89,"x_max":501,"o":"m 501 371 l 207 371 l 207 665 l 89 628 l 89 828 l 225 926 l 501 926 l 501 371 z "},"º":{"ha":768,"x_min":35,"x_max":735,"o":"m 393 856 q 542 844 486 856 q 643 803 597 832 q 735 611 735 742 q 650 417 735 479 q 389 354 565 354 q 119 416 203 354 q 35 615 35 478 q 117 796 35 740 q 393 856 206 856 m 451 670 q 441 680 451 670 q 388 690 431 690 q 324 671 344 690 q 304 608 304 651 q 388 510 304 510 q 471 607 471 510 q 451 670 471 650 z "},"»":{"ha":876,"x_min":60,"x_max":828,"o":"m 696 119 l 443 119 l 574 393 l 443 675 l 696 675 l 828 393 l 696 119 m 313 119 l 60 119 l 189 393 l 60 675 l 313 675 l 443 393 l 313 119 z "},"¼":{"ha":1621,"x_min":89,"x_max":1532,"o":"m 501 371 l 207 371 l 207 665 l 89 628 l 89 828 l 225 926 l 501 926 l 501 371 m 926 926 l 553 0 l 417 0 l 789 926 l 926 926 m 1453 0 l 1163 0 l 1163 78 l 842 78 l 842 304 l 1067 556 l 1453 556 l 1453 243 l 1532 243 l 1532 78 l 1453 78 l 1453 0 m 1171 231 l 1171 381 l 1047 231 l 1171 231 z "},"½":{"ha":1543,"x_min":89,"x_max":1456,"o":"m 501 371 l 207 371 l 207 665 l 89 628 l 89 828 l 225 926 l 501 926 l 501 371 m 926 926 l 553 0 l 417 0 l 789 926 l 926 926 m 1456 0 l 856 0 l 856 157 q 1106 260 1018 210 q 1160 298 1144 282 q 1175 333 1175 314 q 1125 378 1175 378 q 1075 356 1090 378 q 1060 281 1060 333 l 843 281 q 842 325 842 297 q 933 515 842 451 q 1164 567 1010 567 q 1385 513 1317 567 q 1454 375 1454 460 q 1344 222 1454 276 q 1211 171 1306 204 l 1456 171 l 1456 0 z "},"¾":{"ha":1819,"x_min":88,"x_max":1731,"o":"m 97 396 l 88 538 q 265 513 175 513 q 374 556 374 513 q 254 600 374 600 q 143 594 203 600 l 143 640 l 313 747 l 97 747 l 97 926 l 679 926 l 679 788 l 504 679 q 524 681 513 681 q 655 646 610 681 q 700 547 700 611 q 619 408 700 457 q 386 360 538 360 q 97 396 246 360 m 1125 926 l 751 0 l 615 0 l 988 926 l 1125 926 m 1651 0 l 1361 0 l 1361 78 l 1040 78 l 1040 304 l 1265 556 l 1651 556 l 1651 243 l 1731 243 l 1731 78 l 1651 78 l 1651 0 m 1369 231 l 1369 381 l 1246 231 l 1369 231 z "},"¿":{"ha":794,"x_min":38,"x_max":758,"o":"m 253 672 l 610 672 q 557 599 606 665 q 465 460 483 496 q 446 386 446 425 q 481 322 446 340 q 601 304 515 304 q 758 324 665 304 l 758 11 q 403 -14 599 -14 q 126 36 211 -14 q 61 107 85 60 q 38 211 38 154 q 55 315 38 265 q 122 458 72 365 q 253 672 197 596 m 439 986 q 571 951 524 986 q 618 856 618 917 q 438 732 618 732 q 257 856 257 732 q 305 952 257 918 q 439 986 353 986 z "},"À":{"ha":1315,"x_min":-11,"x_max":1331,"o":"m 1331 0 l 851 0 l 818 119 l 508 119 l 475 0 l -11 0 l 285 926 l 1039 926 l 1331 0 m 763 372 l 667 665 l 567 372 l 763 372 m 515 967 l 379 1081 l 779 1081 l 881 967 l 515 967 z "},"Á":{"ha":1315,"x_min":-11,"x_max":1331,"o":"m 1331 0 l 851 0 l 818 119 l 508 119 l 475 0 l -11 0 l 285 926 l 1039 926 l 1331 0 m 763 372 l 667 665 l 567 372 l 763 372 m 800 967 l 435 967 l 536 1081 l 936 1081 l 800 967 z "},"Â":{"ha":1315,"x_min":-11,"x_max":1331,"o":"m 1331 0 l 851 0 l 818 119 l 508 119 l 475 0 l -11 0 l 285 926 l 1039 926 l 1331 0 m 763 372 l 667 665 l 567 372 l 763 372 m 963 965 l 700 965 l 657 1013 l 603 965 l 353 965 l 468 1094 l 851 1094 l 963 965 z "},"Ã":{"ha":1315,"x_min":-11,"x_max":1331,"o":"m 1331 0 l 851 0 l 818 119 l 508 119 l 475 0 l -11 0 l 285 926 l 1039 926 l 1331 0 m 763 372 l 667 665 l 567 372 l 763 372 m 824 1142 l 974 1142 q 895 1013 950 1060 q 765 965 840 965 q 642 989 726 965 q 535 1010 563 1010 q 486 979 501 1010 l 342 979 q 407 1106 357 1060 q 529 1153 457 1153 q 663 1129 569 1153 q 769 1108 744 1108 q 824 1142 808 1108 z "},"Ä":{"ha":1315,"x_min":-11,"x_max":1331,"o":"m 1331 0 l 851 0 l 818 119 l 508 119 l 475 0 l -11 0 l 285 926 l 1039 926 l 1331 0 m 763 372 l 667 665 l 567 372 l 763 372 m 354 967 l 354 1103 l 596 1103 l 596 967 l 354 967 m 724 967 l 724 1103 l 965 1103 l 965 967 l 724 967 z "},"Å":{"ha":1315,"x_min":-11,"x_max":1331,"o":"m 285 926 l 403 926 q 400 953 400 949 q 463 1060 400 1028 q 668 1093 525 1093 q 859 1059 799 1093 q 919 953 919 1025 q 917 926 919 938 l 1039 926 l 1331 0 l 851 0 l 818 119 l 508 119 l 475 0 l -11 0 l 285 926 m 604 926 l 719 926 q 722 951 722 949 q 663 1001 722 1001 q 601 949 601 1001 q 604 926 601 946 m 763 372 l 667 665 l 567 372 l 763 372 z "},"Æ":{"ha":1700,"x_min":-11,"x_max":1653,"o":"m 1653 0 l 696 0 l 696 121 l 490 121 l 456 0 l -11 0 l 332 926 l 1653 926 l 1653 629 l 1172 629 l 1172 543 l 1653 543 l 1653 321 l 1172 321 l 1172 243 l 1653 243 l 1653 0 m 696 372 l 696 757 l 561 372 l 696 372 z "},"Ç":{"ha":1189,"x_min":54,"x_max":1158,"o":"m 375 -185 l 513 -8 q 317 39 400 3 q 124 208 194 93 q 54 471 54 322 q 99 683 54 585 q 224 838 144 781 q 657 946 374 946 q 1158 903 874 946 l 1158 540 q 801 576 951 576 q 611 543 668 576 q 554 431 554 510 q 611 326 554 357 q 810 296 668 296 q 1142 333 979 296 l 1142 14 q 865 -17 990 -12 l 743 -185 l 375 -185 z "},"È":{"ha":1199,"x_min":90,"x_max":1153,"o":"m 1153 0 l 90 0 l 90 926 l 1153 926 l 1153 629 l 567 629 l 567 543 l 1153 543 l 1153 321 l 567 321 l 567 243 l 1153 243 l 1153 0 m 457 967 l 321 1081 l 721 1081 l 822 967 l 457 967 z "},"É":{"ha":1199,"x_min":90,"x_max":1153,"o":"m 1153 0 l 90 0 l 90 926 l 1153 926 l 1153 629 l 567 629 l 567 543 l 1153 543 l 1153 321 l 567 321 l 567 243 l 1153 243 l 1153 0 m 742 967 l 376 967 l 478 1081 l 878 1081 l 742 967 z "},"Ê":{"ha":1199,"x_min":90,"x_max":1153,"o":"m 1153 0 l 90 0 l 90 926 l 1153 926 l 1153 629 l 567 629 l 567 543 l 1153 543 l 1153 321 l 567 321 l 567 243 l 1153 243 l 1153 0 m 904 965 l 642 965 l 599 1013 l 544 965 l 294 965 l 410 1094 l 793 1094 l 904 965 z "},"Ë":{"ha":1199,"x_min":90,"x_max":1153,"o":"m 1153 0 l 90 0 l 90 926 l 1153 926 l 1153 629 l 567 629 l 567 543 l 1153 543 l 1153 321 l 567 321 l 567 243 l 1153 243 l 1153 0 m 294 967 l 294 1103 l 536 1103 l 536 967 l 294 967 m 663 967 l 663 1103 l 904 1103 l 904 967 l 663 967 z "},"Ì":{"ha":664,"x_min":53,"x_max":569,"o":"m 569 0 l 93 0 l 93 926 l 569 926 l 569 0 m 190 967 l 53 1081 l 453 1081 l 554 967 l 190 967 z "},"Í":{"ha":664,"x_min":93,"x_max":610,"o":"m 569 0 l 93 0 l 93 926 l 569 926 l 569 0 m 474 967 l 108 967 l 210 1081 l 610 1081 l 474 967 z "},"Î":{"ha":664,"x_min":28,"x_max":636,"o":"m 571 0 l 94 0 l 94 926 l 571 926 l 571 0 m 636 965 l 375 965 l 332 1013 l 278 965 l 28 965 l 143 1094 l 525 1094 l 636 965 z "},"Ï":{"ha":664,"x_min":57,"x_max":606,"o":"m 569 0 l 93 0 l 93 926 l 569 926 l 569 0 m 57 967 l 57 1103 l 275 1103 l 275 967 l 57 967 m 388 967 l 388 1103 l 606 1103 l 606 967 l 388 967 z "},"Ð":{"ha":1410,"x_min":32,"x_max":1357,"o":"m 92 393 l 32 393 l 32 533 l 92 533 l 92 926 l 900 926 q 1242 804 1121 926 q 1357 493 1357 686 q 1174 115 1357 247 q 785 0 1017 0 l 92 0 l 92 393 m 568 393 l 568 278 l 640 278 q 789 310 738 278 q 864 460 864 356 q 823 569 864 532 q 704 607 782 607 l 568 607 l 568 533 l 701 533 l 701 393 l 568 393 z "},"Ñ":{"ha":1374,"x_min":90,"x_max":1282,"o":"m 1282 0 l 863 0 l 540 415 l 540 0 l 90 0 l 90 926 l 568 926 l 832 539 l 832 926 l 1282 926 l 1282 0 m 851 1142 l 1003 1142 q 924 1013 981 1060 q 794 965 868 965 q 671 989 756 965 q 564 1010 592 1010 q 514 979 531 1010 l 369 979 q 436 1106 386 1060 q 557 1153 486 1153 q 692 1129 599 1153 q 797 1108 774 1108 q 851 1142 839 1108 z "},"Ò":{"ha":1386,"x_min":54,"x_max":1333,"o":"m 690 953 q 1176 831 1018 953 q 1333 457 1333 710 q 1292 241 1333 338 q 1175 90 1250 144 q 693 -26 1013 -26 q 213 90 375 -26 q 54 463 54 206 q 231 846 54 733 q 690 953 396 953 m 693 639 q 575 593 615 639 q 535 460 535 547 q 693 242 535 242 q 853 458 853 242 q 693 639 853 639 m 551 967 l 415 1081 l 815 1081 l 917 967 l 551 967 z "},"Ó":{"ha":1386,"x_min":54,"x_max":1333,"o":"m 690 953 q 1176 831 1018 953 q 1333 457 1333 710 q 1292 241 1333 338 q 1175 90 1250 144 q 693 -26 1013 -26 q 213 90 375 -26 q 54 463 54 206 q 231 846 54 733 q 690 953 396 953 m 693 639 q 575 593 615 639 q 535 460 535 547 q 693 242 535 242 q 853 458 853 242 q 693 639 853 639 m 836 967 l 471 967 l 572 1081 l 972 1081 l 836 967 z "},"Ô":{"ha":1386,"x_min":54,"x_max":1333,"o":"m 690 953 q 1176 831 1018 953 q 1333 457 1333 710 q 1292 241 1333 338 q 1175 90 1250 144 q 693 -26 1013 -26 q 213 90 375 -26 q 54 463 54 206 q 231 846 54 733 q 690 953 396 953 m 693 639 q 575 593 615 639 q 535 460 535 547 q 693 242 535 242 q 853 458 853 242 q 693 639 853 639 m 999 965 l 736 965 l 693 1013 l 639 965 l 389 965 l 504 1094 l 888 1094 l 999 965 z "},"Õ":{"ha":1386,"x_min":54,"x_max":1333,"o":"m 690 953 q 1176 831 1018 953 q 1333 457 1333 710 q 1292 241 1333 338 q 1175 90 1250 144 q 693 -26 1013 -26 q 213 90 375 -26 q 54 463 54 206 q 231 846 54 733 q 690 953 396 953 m 693 639 q 575 593 615 639 q 535 460 535 547 q 693 242 535 242 q 853 458 853 242 q 693 639 853 639 m 860 1142 l 1010 1142 q 931 1013 986 1060 q 801 965 876 965 q 678 989 763 965 q 571 1010 599 1010 q 522 979 538 1010 l 378 979 q 443 1106 393 1060 q 565 1153 493 1153 q 699 1129 606 1153 q 806 1108 781 1108 q 860 1142 844 1108 z "},"Ö":{"ha":1386,"x_min":54,"x_max":1333,"o":"m 690 953 q 1176 831 1018 953 q 1333 457 1333 710 q 1292 241 1333 338 q 1175 90 1250 144 q 693 -26 1013 -26 q 213 90 375 -26 q 54 463 54 206 q 231 846 54 733 q 690 953 396 953 m 693 639 q 575 593 615 639 q 535 460 535 547 q 693 242 535 242 q 853 458 853 242 q 693 639 853 639 m 363 967 l 363 1103 l 604 1103 l 604 967 l 363 967 m 783 967 l 783 1103 l 1025 1103 l 1025 967 l 783 967 z "},"×":{"ha":740,"x_min":24,"x_max":717,"o":"m 368 311 l 178 122 l 29 271 l 219 461 l 24 656 l 176 808 l 372 613 l 563 804 l 711 656 l 521 464 l 717 268 l 564 115 l 368 311 z "},"Ø":{"ha":1386,"x_min":54,"x_max":1333,"o":"m 1325 868 l 1224 792 q 1333 463 1333 674 q 1292 242 1333 339 q 1175 90 1251 146 q 694 -26 1013 -26 q 256 63 407 -26 l 131 -32 l 63 58 l 164 135 q 54 467 54 257 q 231 846 54 731 q 694 953 396 953 q 1129 863 972 953 l 1257 958 l 1325 868 m 849 510 l 571 300 q 694 242 611 242 q 853 460 853 242 q 849 510 853 483 m 538 417 l 793 610 q 694 639 756 639 q 535 460 535 639 q 538 417 535 450 z "},"Ù":{"ha":1315,"x_min":86,"x_max":1229,"o":"m 86 926 l 563 926 l 563 357 q 576 276 563 296 q 658 244 599 244 q 739 276 717 244 q 753 357 753 296 l 753 926 l 1229 926 l 1229 367 q 1207 189 1229 249 q 1125 83 1185 129 q 658 -19 990 -19 q 174 97 303 -19 q 104 201 122 143 q 86 379 86 258 l 86 926 m 543 967 l 407 1081 l 807 1081 l 908 967 l 543 967 z "},"Ú":{"ha":1315,"x_min":86,"x_max":1229,"o":"m 86 926 l 563 926 l 563 357 q 576 276 563 296 q 658 244 599 244 q 739 276 717 244 q 753 357 753 296 l 753 926 l 1229 926 l 1229 367 q 1207 189 1229 249 q 1125 83 1185 129 q 658 -19 990 -19 q 174 97 303 -19 q 104 201 122 143 q 86 379 86 258 l 86 926 m 772 967 l 407 967 l 508 1081 l 908 1081 l 772 967 z "},"Û":{"ha":1315,"x_min":86,"x_max":1229,"o":"m 86 926 l 563 926 l 563 357 q 576 276 563 296 q 658 244 599 244 q 739 276 717 244 q 753 357 753 296 l 753 926 l 1229 926 l 1229 367 q 1207 189 1229 249 q 1125 83 1185 129 q 658 -19 990 -19 q 174 97 303 -19 q 104 201 122 143 q 86 379 86 258 l 86 926 m 963 965 l 700 965 l 657 1013 l 603 965 l 353 965 l 468 1094 l 851 1094 l 963 965 z "},"Ü":{"ha":1315,"x_min":86,"x_max":1229,"o":"m 86 926 l 563 926 l 563 357 q 576 276 563 296 q 658 244 599 244 q 739 276 717 244 q 753 357 753 296 l 753 926 l 1229 926 l 1229 367 q 1207 189 1229 249 q 1125 83 1185 129 q 658 -19 990 -19 q 174 97 303 -19 q 104 201 122 143 q 86 379 86 258 l 86 926 m 353 967 l 353 1103 l 594 1103 l 594 967 l 353 967 m 721 967 l 721 1103 l 963 1103 l 963 967 l 721 967 z "},"Ý":{"ha":1250,"x_min":-15,"x_max":1265,"o":"m 865 0 l 390 0 l 390 267 l -15 926 l 517 926 l 640 646 l 751 926 l 1265 926 l 865 267 l 865 0 m 768 967 l 403 967 l 504 1081 l 904 1081 l 768 967 z "},"Þ":{"ha":1308,"x_min":56,"x_max":1285,"o":"m 532 0 l 56 0 l 56 926 l 532 926 l 532 833 l 926 833 q 1191 749 1097 833 q 1285 510 1285 664 q 1247 335 1285 415 q 1139 207 1208 256 q 761 118 1011 118 l 532 118 l 532 0 m 532 372 l 686 372 q 819 476 819 372 q 794 543 819 519 q 721 567 768 567 l 532 567 l 532 372 z "},"ß":{"ha":1178,"x_min":75,"x_max":1135,"o":"m 538 0 l 75 0 l 75 751 q 183 937 75 888 q 585 986 290 986 q 848 970 754 986 q 990 917 942 954 q 1068 742 1068 860 q 956 547 1068 597 q 1093 469 1051 529 q 1135 290 1135 410 q 1071 61 1135 131 q 982 8 1036 22 q 817 -7 928 -7 q 611 0 704 -7 l 611 238 q 638 236 621 236 q 706 300 706 236 q 642 364 706 364 q 611 361 633 364 l 611 658 q 665 718 665 664 q 603 774 665 774 q 549 756 561 774 q 538 678 538 739 l 538 0 z "},"à":{"ha":1239,"x_min":47,"x_max":1192,"o":"m 1192 0 l 742 0 l 742 99 q 607 6 678 32 q 421 -19 536 -19 q 229 13 304 -19 q 110 114 154 44 q 47 390 47 213 q 147 708 47 611 q 431 800 243 800 q 742 671 643 800 l 742 781 l 1192 781 l 1192 0 m 717 487 q 699 507 717 487 q 621 526 682 526 q 525 488 560 526 q 490 381 490 449 q 525 262 490 304 q 621 219 560 219 q 717 262 682 219 q 751 378 751 304 q 717 487 751 447 m 854 860 l 483 860 l 275 1022 l 757 1022 l 854 860 z "},"á":{"ha":1239,"x_min":47,"x_max":1192,"o":"m 1192 0 l 742 0 l 742 99 q 607 6 678 32 q 421 -19 536 -19 q 229 13 304 -19 q 110 114 154 44 q 47 390 47 213 q 147 708 47 611 q 431 800 243 800 q 742 671 643 800 l 742 781 l 1192 781 l 1192 0 m 717 487 q 699 507 717 487 q 621 526 682 526 q 525 488 560 526 q 490 381 490 449 q 525 262 490 304 q 621 219 560 219 q 717 262 682 219 q 751 378 751 304 q 717 487 751 447 m 386 860 l 483 1022 l 965 1022 l 756 860 l 386 860 z "},"â":{"ha":1239,"x_min":47,"x_max":1192,"o":"m 1192 0 l 742 0 l 742 99 q 607 6 678 32 q 421 -19 536 -19 q 229 13 304 -19 q 110 114 154 44 q 47 390 47 213 q 147 708 47 611 q 431 800 243 800 q 742 671 643 800 l 742 781 l 1192 781 l 1192 0 m 717 487 q 699 507 717 487 q 621 526 682 526 q 525 488 560 526 q 490 381 490 449 q 525 262 490 304 q 621 219 560 219 q 717 262 682 219 q 751 378 751 304 q 717 487 751 447 m 1019 860 l 708 860 l 621 940 l 528 860 l 219 860 l 372 1011 l 878 1011 l 1019 860 z "},"ã":{"ha":1239,"x_min":47,"x_max":1192,"o":"m 1192 0 l 742 0 l 742 99 q 607 6 678 32 q 421 -19 536 -19 q 229 13 304 -19 q 110 114 154 44 q 47 390 47 213 q 147 708 47 611 q 431 800 243 800 q 742 671 643 800 l 742 781 l 1192 781 l 1192 0 m 717 487 q 699 507 717 487 q 621 526 682 526 q 525 488 560 526 q 490 381 490 449 q 525 262 490 304 q 621 219 560 219 q 717 262 682 219 q 751 378 751 304 q 717 487 751 447 m 785 1010 l 936 1010 q 858 879 913 926 q 726 832 803 832 q 604 856 689 832 q 497 876 525 876 q 449 846 464 876 l 303 846 q 346 947 315 907 q 490 1021 401 1021 q 625 997 532 1021 q 731 975 706 975 q 785 1010 772 975 z "},"ä":{"ha":1239,"x_min":47,"x_max":1192,"o":"m 1192 0 l 742 0 l 742 99 q 607 6 678 32 q 421 -19 536 -19 q 229 13 304 -19 q 110 114 154 44 q 47 390 47 213 q 147 708 47 611 q 431 800 243 800 q 742 671 643 800 l 742 781 l 1192 781 l 1192 0 m 717 487 q 699 507 717 487 q 621 526 682 526 q 525 488 560 526 q 490 381 490 449 q 525 262 490 304 q 621 219 560 219 q 717 262 682 219 q 751 378 751 304 q 717 487 751 447 m 333 863 l 333 1006 l 565 1006 l 565 863 l 333 863 m 679 863 l 679 1006 l 911 1006 l 911 863 l 679 863 z "},"å":{"ha":1239,"x_min":47,"x_max":1192,"o":"m 1192 14 l 742 14 l 742 113 q 607 19 678 46 q 421 -7 536 -7 q 137 92 226 -7 q 47 404 47 190 q 147 721 47 625 q 431 814 243 814 q 742 685 642 814 l 742 794 l 1192 794 l 1192 14 m 717 501 q 699 520 717 501 q 621 540 682 540 q 525 501 560 540 q 490 393 490 461 q 525 274 490 317 q 621 232 560 232 q 717 275 682 232 q 751 392 751 318 q 717 501 751 461 m 658 1133 q 848 1099 788 1133 q 908 993 908 1065 q 847 881 908 917 q 654 844 785 844 q 452 880 514 844 q 390 994 390 915 q 453 1101 390 1068 q 658 1133 515 1133 m 711 992 q 651 1042 711 1042 q 592 992 592 1042 q 651 931 592 931 q 711 992 711 931 z "},"æ":{"ha":2025,"x_min":47,"x_max":1981,"o":"m 1072 781 l 1072 671 l 1154 735 q 1281 785 1207 771 q 1489 800 1354 800 q 1879 692 1764 800 q 1953 563 1926 649 q 1981 375 1981 476 q 1978 304 1981 365 l 1363 304 q 1399 222 1363 244 q 1529 199 1435 199 q 1978 261 1728 199 l 1883 47 q 1631 -6 1726 8 q 1426 -19 1535 -19 q 1228 6 1293 -19 q 1072 115 1163 31 l 1072 0 l 742 0 l 742 99 q 607 6 678 32 q 421 -19 536 -19 q 229 13 304 -19 q 110 114 154 44 q 47 390 47 214 q 147 708 47 611 q 431 800 243 800 q 742 671 643 800 l 742 781 l 1072 781 m 717 487 q 699 507 717 487 q 621 526 682 526 q 525 488 560 526 q 490 381 490 449 q 525 262 490 304 q 621 219 560 219 q 717 262 682 219 q 751 378 751 304 q 717 487 751 447 m 1342 483 l 1619 483 q 1600 561 1618 535 q 1486 613 1564 613 q 1385 582 1419 613 q 1342 483 1351 551 z "},"ç":{"ha":1042,"x_min":44,"x_max":1001,"o":"m 281 -185 l 422 -8 q 243 39 311 7 q 97 177 149 82 q 44 400 44 272 q 81 585 44 503 q 182 708 118 667 q 611 801 328 801 q 996 761 778 801 l 1001 456 q 701 482 831 482 q 576 471 622 482 q 517 433 540 461 q 494 365 494 404 q 537 282 494 311 q 657 253 579 253 q 1001 297 788 253 l 996 38 q 700 -18 849 -11 l 571 -185 l 281 -185 z "},"è":{"ha":1182,"x_min":44,"x_max":1138,"o":"m 1135 261 l 1042 47 q 564 -19 751 -19 q 179 75 313 -19 q 44 375 44 171 q 86 574 44 483 q 200 713 128 664 q 615 800 328 800 q 1060 658 947 800 q 1116 537 1094 615 q 1138 374 1138 458 q 1135 304 1138 365 l 519 304 q 556 222 519 244 q 688 199 592 199 q 1135 261 885 199 m 499 483 l 776 483 q 757 561 775 533 q 643 613 724 613 q 542 582 576 613 q 499 483 508 551 m 825 860 l 456 860 l 246 1022 l 728 1022 l 825 860 z "},"é":{"ha":1182,"x_min":44,"x_max":1138,"o":"m 1135 261 l 1042 47 q 564 -19 751 -19 q 179 75 313 -19 q 44 375 44 171 q 86 574 44 483 q 200 713 128 664 q 615 800 328 800 q 1060 658 947 800 q 1116 537 1094 615 q 1138 374 1138 458 q 1135 304 1138 365 l 519 304 q 556 222 519 244 q 688 199 592 199 q 1135 261 885 199 m 499 483 l 776 483 q 757 561 775 533 q 643 613 724 613 q 542 582 576 613 q 499 483 508 551 m 357 860 l 454 1022 l 936 1022 l 726 860 l 357 860 z "},"ê":{"ha":1182,"x_min":44,"x_max":1138,"o":"m 1135 261 l 1042 47 q 564 -19 751 -19 q 179 75 313 -19 q 44 375 44 171 q 86 574 44 483 q 200 713 128 664 q 615 800 328 800 q 1060 658 947 800 q 1116 537 1094 615 q 1138 374 1138 458 q 1135 304 1138 365 l 519 304 q 556 222 519 244 q 688 199 592 199 q 1135 261 885 199 m 499 483 l 776 483 q 757 561 775 533 q 643 613 724 613 q 542 582 576 613 q 499 483 508 551 m 992 860 l 679 860 l 593 940 l 499 860 l 190 860 l 344 1011 l 849 1011 l 992 860 z "},"ë":{"ha":1182,"x_min":44,"x_max":1138,"o":"m 1135 261 l 1042 47 q 564 -19 751 -19 q 179 75 313 -19 q 44 375 44 171 q 86 574 44 483 q 200 713 128 664 q 615 800 328 800 q 1060 658 947 800 q 1116 537 1094 615 q 1138 374 1138 458 q 1135 304 1138 365 l 519 304 q 556 222 519 244 q 688 199 592 199 q 1135 261 885 199 m 499 483 l 776 483 q 757 561 775 533 q 643 613 724 613 q 542 582 576 613 q 499 483 508 551 m 301 863 l 301 1006 l 533 1006 l 533 863 l 301 863 m 649 863 l 649 1006 l 881 1006 l 881 863 l 649 863 z "},"ì":{"ha":600,"x_min":-44,"x_max":535,"o":"m 525 0 l 76 0 l 76 794 q 301 781 158 781 q 525 794 443 781 l 525 0 m 535 860 l 165 860 l -44 1022 l 438 1022 l 535 860 z "},"í":{"ha":600,"x_min":67,"x_max":646,"o":"m 525 0 l 76 0 l 76 794 q 301 781 158 781 q 525 794 443 781 l 525 0 m 67 860 l 164 1022 l 646 1022 l 436 860 l 67 860 z "},"î":{"ha":600,"x_min":1,"x_max":599,"o":"m 525 0 l 75 0 l 75 794 q 300 781 157 781 q 525 794 443 781 l 525 0 m 599 860 l 338 860 l 301 944 l 258 860 l 1 860 l 90 1011 l 521 1011 l 599 860 z "},"ï":{"ha":600,"x_min":40,"x_max":561,"o":"m 525 0 l 75 0 l 75 794 q 300 781 157 781 q 525 794 443 781 l 525 0 m 40 863 l 40 1006 l 249 1006 l 249 863 l 40 863 m 353 863 l 353 1006 l 561 1006 l 561 863 l 353 863 z "},"ð":{"ha":1200,"x_min":44,"x_max":1156,"o":"m 857 933 l 985 1018 l 1122 833 l 988 744 l 999 729 q 1075 604 1069 614 q 1140 473 1124 522 q 1156 354 1156 424 q 1017 63 1156 154 q 603 -26 885 -26 q 178 65 311 -26 q 44 354 44 156 q 172 626 44 544 q 349 694 249 674 q 608 714 450 714 q 686 713 650 714 q 557 885 631 797 l 789 1018 q 846 949 825 975 l 857 933 m 747 347 q 604 449 747 449 q 461 349 461 449 q 606 222 461 222 q 747 347 747 222 z "},"ñ":{"ha":1276,"x_min":75,"x_max":1201,"o":"m 1201 0 l 751 0 l 751 382 q 726 464 751 439 q 643 489 701 489 q 553 461 581 489 q 525 372 525 433 l 525 0 l 75 0 l 75 781 l 525 781 l 525 663 q 658 769 582 739 q 861 800 733 800 q 1118 722 1035 800 q 1201 485 1201 644 l 1201 0 m 804 1010 l 954 1010 q 876 879 931 926 q 746 832 821 832 q 622 856 707 832 q 515 876 543 876 q 467 846 482 876 l 322 846 q 364 947 335 910 q 508 1021 422 1021 q 643 997 553 1021 q 750 975 724 975 q 804 1010 790 975 z "},"ò":{"ha":1200,"x_min":44,"x_max":1156,"o":"m 613 807 q 853 788 765 807 q 1011 718 942 768 q 1156 400 1156 617 q 1017 72 1156 179 q 606 -26 889 -26 q 176 76 308 -26 q 44 408 44 178 q 174 707 44 614 q 348 783 246 760 q 613 807 450 807 m 604 542 q 461 397 461 542 q 604 222 461 222 q 747 394 747 222 q 713 506 747 471 q 604 542 678 542 m 833 860 l 464 860 l 254 1022 l 736 1022 l 833 860 z "},"ó":{"ha":1200,"x_min":44,"x_max":1156,"o":"m 613 807 q 853 788 765 807 q 1011 718 942 768 q 1156 400 1156 617 q 1017 72 1156 179 q 606 -26 889 -26 q 176 76 308 -26 q 44 408 44 178 q 174 707 44 614 q 348 783 246 760 q 613 807 450 807 m 604 542 q 461 397 461 542 q 604 222 461 222 q 747 394 747 222 q 713 506 747 471 q 604 542 678 542 m 365 860 l 463 1022 l 944 1022 l 736 860 l 365 860 z "},"ô":{"ha":1200,"x_min":44,"x_max":1156,"o":"m 613 807 q 853 788 765 807 q 1011 718 942 768 q 1156 400 1156 617 q 1017 72 1156 179 q 606 -26 889 -26 q 176 76 308 -26 q 44 408 44 178 q 174 707 44 614 q 348 783 246 760 q 613 807 450 807 m 604 542 q 461 397 461 542 q 604 222 461 222 q 747 394 747 222 q 713 506 747 471 q 604 542 678 542 m 1000 860 l 689 860 l 601 940 l 508 860 l 200 860 l 353 1011 l 857 1011 l 1000 860 z "},"õ":{"ha":1200,"x_min":44,"x_max":1156,"o":"m 613 807 q 853 788 765 807 q 1011 718 942 768 q 1156 400 1156 617 q 1017 72 1156 179 q 606 -26 889 -26 q 176 76 308 -26 q 44 408 44 178 q 174 707 44 614 q 348 783 246 760 q 613 807 450 807 m 604 542 q 461 397 461 542 q 604 222 461 222 q 747 394 747 222 q 713 506 747 471 q 604 542 678 542 m 765 1010 l 915 1010 q 838 879 893 926 q 707 832 782 832 q 583 856 669 832 q 476 876 504 876 q 428 846 444 876 l 283 846 q 326 947 296 910 q 471 1021 382 1021 q 604 997 514 1021 q 711 975 685 975 q 765 1010 751 975 z "},"ö":{"ha":1200,"x_min":44,"x_max":1156,"o":"m 613 807 q 853 788 765 807 q 1011 718 942 768 q 1156 400 1156 617 q 1017 72 1156 179 q 606 -26 889 -26 q 176 76 308 -26 q 44 408 44 178 q 174 707 44 614 q 348 783 246 760 q 613 807 450 807 m 604 542 q 461 397 461 542 q 604 222 461 222 q 747 394 747 222 q 713 506 747 471 q 604 542 678 542 m 311 863 l 311 1006 l 543 1006 l 543 863 l 311 863 m 657 863 l 657 1006 l 889 1006 l 889 863 l 657 863 z "},"÷":{"ha":740,"x_min":21,"x_max":719,"o":"m 21 568 l 719 568 l 719 357 l 21 357 l 21 568 m 369 844 q 507 815 463 844 q 551 721 551 785 q 503 626 551 660 q 368 592 456 592 q 236 626 283 592 q 189 722 189 661 q 369 844 189 844 m 369 335 q 507 305 463 335 q 551 211 551 275 q 503 115 551 149 q 368 81 456 81 q 236 115 283 81 q 189 211 189 150 q 369 335 189 335 z "},"ø":{"ha":1235,"x_min":44,"x_max":1190,"o":"m 1190 728 l 1092 658 q 1172 399 1172 565 q 1035 72 1172 179 q 618 -26 906 -26 q 229 53 367 -26 l 104 -35 l 44 51 l 146 122 q 63 403 63 221 q 190 707 63 613 q 365 784 264 761 q 628 807 465 807 q 1011 731 892 807 l 1129 814 l 1190 728 m 764 428 l 521 257 q 622 222 557 222 q 765 394 765 222 q 764 428 765 417 m 481 358 l 713 521 q 621 542 681 542 q 479 396 479 542 q 481 358 479 374 z "},"ù":{"ha":1235,"x_min":75,"x_max":1160,"o":"m 1160 781 l 1160 307 q 1051 68 1160 142 q 618 -19 918 -19 q 183 68 317 -19 q 75 307 75 142 l 75 781 l 525 781 l 525 333 q 545 242 525 267 q 618 217 565 217 q 690 242 671 217 q 710 333 710 267 l 710 781 l 1160 781 m 851 860 l 481 860 l 272 1022 l 754 1022 l 851 860 z "},"ú":{"ha":1235,"x_min":75,"x_max":1160,"o":"m 1160 781 l 1160 307 q 1051 68 1160 142 q 618 -19 918 -19 q 183 68 317 -19 q 75 307 75 142 l 75 781 l 525 781 l 525 333 q 545 242 525 267 q 618 217 565 217 q 690 242 671 217 q 710 333 710 267 l 710 781 l 1160 781 m 383 860 l 481 1022 l 963 1022 l 753 860 l 383 860 z "},"û":{"ha":1235,"x_min":75,"x_max":1160,"o":"m 1160 781 l 1160 307 q 1051 68 1160 142 q 618 -19 918 -19 q 183 68 317 -19 q 75 307 75 142 l 75 781 l 525 781 l 525 333 q 545 242 525 267 q 618 217 565 217 q 690 242 671 217 q 710 333 710 267 l 710 781 l 1160 781 m 1018 860 l 706 860 l 618 940 l 525 860 l 217 860 l 371 1011 l 875 1011 l 1018 860 z "},"ü":{"ha":1235,"x_min":75,"x_max":1160,"o":"m 1160 781 l 1160 307 q 1051 68 1160 142 q 618 -19 918 -19 q 183 68 317 -19 q 75 307 75 142 l 75 781 l 525 781 l 525 333 q 545 242 525 267 q 618 217 565 217 q 690 242 671 217 q 710 333 710 267 l 710 781 l 1160 781 m 328 863 l 328 1006 l 560 1006 l 560 863 l 328 863 m 675 863 l 675 1006 l 907 1006 l 907 863 l 675 863 z "},"ý":{"ha":1208,"x_min":-1,"x_max":1213,"o":"m 744 781 l 1213 781 l 922 161 q 749 -110 835 -28 q 651 -169 703 -153 q 503 -185 599 -185 l 88 -185 l 88 61 l 375 61 l -1 781 l 467 781 l 618 394 l 744 781 m 371 860 l 468 1022 l 950 1022 l 740 860 l 371 860 z "},"þ":{"ha":1264,"x_min":75,"x_max":1219,"o":"m 75 -185 l 75 965 l 525 965 l 525 671 q 836 800 624 800 q 1119 708 1024 800 q 1219 390 1219 610 q 1157 114 1219 217 q 1038 13 1113 44 q 846 -19 963 -19 q 660 6 731 -19 q 525 99 589 32 l 525 -185 l 75 -185 m 742 487 q 724 507 742 487 q 646 526 707 526 q 550 487 585 526 q 515 378 515 447 q 550 262 515 304 q 646 219 585 219 q 742 262 707 219 q 776 376 776 304 q 742 487 776 447 z "},"ÿ":{"ha":1208,"x_min":-1,"x_max":1213,"o":"m 744 781 l 1213 781 l 922 161 q 749 -110 835 -28 q 651 -169 703 -153 q 503 -185 599 -185 l 88 -185 l 88 61 l 375 61 l -1 781 l 467 781 l 618 394 l 744 781 m 315 863 l 315 1006 l 547 1006 l 547 863 l 315 863 m 661 863 l 661 1006 l 893 1006 l 893 863 l 661 863 z "},"Ā":{"ha":1315,"x_min":-11,"x_max":1331,"o":"m 1331 0 l 851 0 l 818 119 l 508 119 l 475 0 l -11 0 l 285 926 l 1039 926 l 1331 0 m 763 372 l 667 665 l 567 372 l 763 372 m 950 967 l 365 967 l 365 1107 l 950 1107 l 950 967 z "},"ā":{"ha":1239,"x_min":47,"x_max":1192,"o":"m 1192 0 l 742 0 l 742 99 q 607 6 678 32 q 421 -19 536 -19 q 229 13 304 -19 q 110 114 154 44 q 47 390 47 213 q 147 708 47 611 q 431 800 243 800 q 742 671 643 800 l 742 781 l 1192 781 l 1192 0 m 717 487 q 699 507 717 487 q 621 526 682 526 q 525 488 560 526 q 490 381 490 449 q 525 262 490 304 q 621 219 560 219 q 717 262 682 219 q 751 378 751 304 q 717 487 751 447 m 893 860 l 347 860 l 347 1000 l 893 1000 l 893 860 z "},"Ă":{"ha":1315,"x_min":-11,"x_max":1331,"o":"m 1331 0 l 851 0 l 818 119 l 508 119 l 475 0 l -11 0 l 285 926 l 1039 926 l 1331 0 m 763 372 l 667 665 l 567 372 l 763 372 m 376 1139 l 500 1139 q 549 1099 514 1111 q 657 1088 585 1088 q 766 1099 731 1088 q 815 1139 801 1111 l 938 1139 q 890 1031 933 1072 q 657 963 821 963 q 425 1031 494 963 q 376 1139 382 1071 z "},"ă":{"ha":1239,"x_min":47,"x_max":1192,"o":"m 1192 0 l 742 0 l 742 99 q 607 6 678 32 q 421 -19 536 -19 q 229 13 304 -19 q 110 114 154 44 q 47 390 47 213 q 147 708 47 611 q 431 800 243 800 q 742 671 643 800 l 742 781 l 1192 781 l 1192 0 m 717 487 q 699 507 717 487 q 621 526 682 526 q 525 488 560 526 q 490 381 490 449 q 525 262 490 304 q 621 219 560 219 q 717 262 682 219 q 751 378 751 304 q 717 487 751 447 m 283 1058 l 422 1058 q 482 1000 438 1017 q 619 983 526 983 q 757 1000 713 983 q 817 1058 801 1017 l 956 1058 q 899 929 951 981 q 619 847 813 847 q 342 929 425 847 q 283 1058 289 978 z "},"Ą":{"ha":1315,"x_min":-11,"x_max":1386,"o":"m 1039 926 l 1331 0 q 1288 -61 1297 -43 q 1279 -99 1279 -79 q 1350 -150 1279 -150 q 1386 -146 1358 -150 l 1386 -268 q 1311 -274 1349 -274 q 1185 -240 1231 -274 q 1139 -144 1139 -206 q 1203 0 1139 -74 l 851 0 l 818 119 l 508 119 l 475 0 l -11 0 l 285 926 l 1039 926 m 763 372 l 667 665 l 567 372 l 763 372 z "},"ą":{"ha":1239,"x_min":47,"x_max":1246,"o":"m 1192 781 l 1192 0 q 1149 -60 1158 -42 q 1139 -99 1139 -79 q 1210 -150 1139 -150 q 1246 -146 1219 -150 l 1246 -268 q 1172 -274 1208 -274 q 1044 -240 1090 -274 q 999 -144 999 -206 q 1064 0 999 -76 l 742 0 l 742 99 q 607 6 678 32 q 421 -19 536 -19 q 229 13 304 -19 q 110 114 154 44 q 47 390 47 213 q 147 708 47 611 q 431 800 243 800 q 742 671 643 800 l 742 781 l 1192 781 m 717 487 q 699 507 717 487 q 621 526 682 526 q 525 488 560 526 q 490 381 490 449 q 525 262 490 304 q 621 219 560 219 q 717 262 682 219 q 751 378 751 304 q 717 487 751 447 z "},"Ć":{"ha":1189,"x_min":54,"x_max":1158,"o":"m 1142 333 l 1142 13 q 736 -19 946 -19 q 427 5 540 -19 q 232 89 314 29 q 101 251 149 150 q 54 471 54 353 q 99 683 54 585 q 224 838 144 781 q 657 946 374 946 q 1158 903 874 946 l 1158 540 q 801 576 947 576 q 611 543 668 576 q 554 431 554 510 q 611 326 554 357 q 810 296 668 296 q 1142 333 979 296 m 792 967 l 426 967 l 529 1081 l 929 1081 l 792 967 z "},"ć":{"ha":1042,"x_min":44,"x_max":1001,"o":"m 1001 297 l 996 38 q 621 -21 811 -21 q 243 39 371 -21 q 97 177 149 82 q 44 400 44 272 q 81 585 44 503 q 182 708 118 667 q 611 801 328 801 q 996 761 779 801 l 1001 456 q 701 482 829 482 q 576 471 622 482 q 517 433 540 461 q 494 365 494 404 q 537 282 494 311 q 657 253 579 253 q 1001 297 786 253 m 343 860 l 440 1022 l 921 1022 l 713 860 l 343 860 z "},"Ĉ":{"ha":1189,"x_min":54,"x_max":1158,"o":"m 1142 333 l 1142 13 q 736 -19 946 -19 q 427 5 540 -19 q 232 89 314 29 q 101 251 149 150 q 54 471 54 353 q 99 683 54 585 q 224 838 144 781 q 657 946 374 946 q 1158 903 874 946 l 1158 540 q 801 576 947 576 q 611 543 668 576 q 554 431 554 510 q 611 326 554 357 q 810 296 668 296 q 1142 333 979 296 m 954 965 l 693 965 l 650 1013 l 596 965 l 346 965 l 461 1094 l 843 1094 l 954 965 z "},"Ċ":{"ha":1189,"x_min":54,"x_max":1158,"o":"m 1142 333 l 1142 13 q 736 -19 946 -19 q 427 5 540 -19 q 232 89 314 29 q 101 251 149 150 q 54 471 54 353 q 99 683 54 585 q 224 838 144 781 q 657 946 374 946 q 1158 903 874 946 l 1158 540 q 801 576 947 576 q 611 543 668 576 q 554 431 554 510 q 611 326 554 357 q 810 296 668 296 q 1142 333 979 296 m 529 967 l 529 1103 l 771 1103 l 771 967 l 529 967 z "},"ċ":{"ha":1042,"x_min":44,"x_max":1001,"o":"m 1001 297 l 996 38 q 621 -21 811 -21 q 243 39 371 -21 q 97 177 149 82 q 44 400 44 272 q 81 585 44 503 q 182 708 118 667 q 611 801 328 801 q 996 761 779 801 l 1001 456 q 701 482 829 482 q 576 471 622 482 q 517 433 540 461 q 494 365 494 404 q 537 282 494 311 q 657 253 579 253 q 1001 297 786 253 m 461 863 l 461 1006 l 693 1006 l 693 863 l 461 863 z "},"Č":{"ha":1189,"x_min":54,"x_max":1158,"o":"m 1142 333 l 1142 13 q 736 -19 946 -19 q 427 5 540 -19 q 232 89 314 29 q 101 251 149 150 q 54 471 54 353 q 99 683 54 585 q 224 838 144 781 q 657 946 374 946 q 1158 903 874 946 l 1158 540 q 801 576 947 576 q 611 543 668 576 q 554 431 554 510 q 611 326 554 357 q 810 296 668 296 q 1142 333 979 296 m 954 1094 l 843 965 l 461 965 l 346 1094 l 596 1094 l 650 1047 l 693 1094 l 954 1094 z "},"č":{"ha":1042,"x_min":44,"x_max":1001,"o":"m 1001 297 l 996 38 q 621 -21 811 -21 q 243 39 371 -21 q 97 177 149 82 q 44 400 44 272 q 81 585 44 503 q 182 708 118 667 q 611 801 328 801 q 996 761 779 801 l 1001 456 q 701 482 829 482 q 576 471 622 482 q 517 433 540 461 q 494 365 494 404 q 537 282 494 311 q 657 253 579 253 q 1001 297 786 253 m 976 1011 l 835 860 l 329 860 l 176 1011 l 485 1011 l 578 931 l 665 1011 l 976 1011 z "},"Ď":{"ha":1410,"x_min":90,"x_max":1356,"o":"m 90 0 l 90 926 l 899 926 q 1240 804 1119 926 q 1356 493 1356 686 q 1172 115 1356 247 q 783 0 1015 0 l 90 0 m 567 278 l 639 278 q 788 310 736 278 q 863 458 863 356 q 703 607 863 607 l 567 607 l 567 278 m 917 1094 l 806 965 l 422 965 l 307 1094 l 558 1094 l 611 1047 l 656 1094 l 917 1094 z "},"ď":{"ha":1543,"x_min":44,"x_max":1571,"o":"m 1189 0 l 739 0 l 739 99 q 604 6 675 32 q 418 -19 533 -19 q 107 114 192 -19 q 44 390 44 213 q 144 708 44 611 q 428 800 240 800 q 739 671 640 800 l 739 965 l 1189 965 l 1189 0 m 714 487 q 697 507 714 487 q 618 526 679 526 q 522 488 557 526 q 488 381 488 449 q 522 262 488 304 q 618 219 557 219 q 714 262 679 219 q 749 378 749 304 q 714 487 749 447 m 1571 965 l 1428 640 l 1235 640 l 1301 965 l 1571 965 z "},"Đ":{"ha":1410,"x_min":32,"x_max":1357,"o":"m 92 393 l 32 393 l 32 533 l 92 533 l 92 926 l 900 926 q 1242 804 1121 926 q 1357 493 1357 686 q 1174 115 1357 247 q 785 0 1017 0 l 92 0 l 92 393 m 568 393 l 568 278 l 640 278 q 789 310 738 278 q 864 460 864 356 q 823 569 864 532 q 704 607 782 607 l 568 607 l 568 533 l 701 533 l 701 393 l 568 393 z "},"đ":{"ha":1264,"x_min":44,"x_max":1256,"o":"m 1189 879 l 1256 879 l 1256 739 l 1189 739 l 1189 0 l 739 0 l 739 99 q 604 6 675 32 q 418 -19 533 -19 q 226 13 301 -19 q 107 114 151 44 q 44 390 44 214 q 144 708 44 611 q 428 800 240 800 q 739 671 638 800 l 739 965 l 1189 965 l 1189 879 m 714 487 q 697 507 714 487 q 618 526 679 526 q 522 488 557 526 q 488 381 488 449 q 522 262 488 304 q 618 219 557 219 q 714 262 679 219 q 749 378 749 304 q 714 487 749 447 z "},"Ē":{"ha":1199,"x_min":90,"x_max":1153,"o":"m 1153 0 l 90 0 l 90 926 l 1153 926 l 1153 629 l 567 629 l 567 543 l 1153 543 l 1153 321 l 567 321 l 567 243 l 1153 243 l 1153 0 m 910 967 l 325 967 l 325 1107 l 910 1107 l 910 967 z "},"ē":{"ha":1182,"x_min":44,"x_max":1138,"o":"m 1135 261 l 1042 47 q 564 -19 751 -19 q 179 75 313 -19 q 44 375 44 171 q 86 574 44 483 q 200 713 128 664 q 615 800 328 800 q 1060 658 947 800 q 1116 537 1094 615 q 1138 374 1138 458 q 1135 304 1138 365 l 519 304 q 556 222 519 244 q 688 199 592 199 q 1135 261 885 199 m 499 483 l 776 483 q 757 561 775 533 q 643 613 724 613 q 542 582 576 613 q 499 483 508 551 m 864 860 l 318 860 l 318 1000 l 864 1000 l 864 860 z "},"Ĕ":{"ha":1199,"x_min":90,"x_max":1153,"o":"m 1153 0 l 90 0 l 90 926 l 1153 926 l 1153 629 l 567 629 l 567 543 l 1153 543 l 1153 321 l 567 321 l 567 243 l 1153 243 l 1153 0 m 318 1139 l 442 1139 q 491 1099 456 1111 q 599 1088 526 1088 q 708 1099 672 1088 q 756 1139 743 1111 l 879 1139 q 832 1031 875 1072 q 599 963 760 963 q 367 1031 436 963 q 318 1139 322 1074 z "},"ĕ":{"ha":1182,"x_min":44,"x_max":1138,"o":"m 1135 261 l 1042 47 q 564 -19 751 -19 q 179 75 313 -19 q 44 375 44 171 q 86 574 44 483 q 200 713 128 664 q 615 800 328 800 q 1060 658 947 800 q 1116 537 1094 615 q 1138 374 1138 458 q 1135 304 1138 365 l 519 304 q 556 222 519 244 q 688 199 592 199 q 1135 261 885 199 m 499 483 l 776 483 q 757 561 775 533 q 643 613 724 613 q 542 582 576 613 q 499 483 508 551 m 274 1058 l 413 1058 q 472 1000 428 1017 q 610 983 517 983 q 747 1000 703 983 q 807 1058 792 1017 l 946 1058 q 888 929 940 978 q 610 847 804 847 q 331 929 417 847 q 274 1058 278 981 z "},"Ė":{"ha":1199,"x_min":90,"x_max":1153,"o":"m 1153 0 l 90 0 l 90 926 l 1153 926 l 1153 629 l 567 629 l 567 543 l 1153 543 l 1153 321 l 567 321 l 567 243 l 1153 243 l 1153 0 m 478 967 l 478 1103 l 719 1103 l 719 967 l 478 967 z "},"ė":{"ha":1182,"x_min":44,"x_max":1138,"o":"m 1135 261 l 1042 47 q 564 -19 751 -19 q 179 75 313 -19 q 44 375 44 171 q 86 574 44 483 q 200 713 128 664 q 615 800 328 800 q 1060 658 947 800 q 1116 537 1094 615 q 1138 374 1138 458 q 1135 304 1138 365 l 519 304 q 556 222 519 244 q 688 199 592 199 q 1135 261 885 199 m 499 483 l 776 483 q 757 561 775 533 q 643 613 724 613 q 542 582 576 613 q 499 483 508 551 m 475 863 l 475 1006 l 707 1006 l 707 863 l 475 863 z "},"Ę":{"ha":1199,"x_min":90,"x_max":1207,"o":"m 1153 243 l 1153 0 q 1110 -60 1119 -42 q 1100 -99 1100 -79 q 1171 -150 1100 -150 q 1207 -146 1181 -150 l 1207 -268 q 1133 -274 1169 -274 q 1006 -240 1051 -274 q 960 -144 960 -206 q 1025 0 960 -76 l 90 0 l 90 926 l 1153 926 l 1153 629 l 567 629 l 567 543 l 1153 543 l 1153 321 l 567 321 l 567 243 l 1153 243 z "},"ę":{"ha":1182,"x_min":44,"x_max":1138,"o":"m 1135 261 l 1040 47 l 911 15 q 824 -82 824 -6 q 894 -142 824 -142 q 931 -137 903 -142 l 931 -258 q 856 -265 896 -265 q 729 -231 775 -265 q 683 -135 683 -196 q 732 -10 683 -76 q 561 -19 636 -19 q 179 75 315 -19 q 44 375 44 171 q 86 574 44 483 q 200 713 128 664 q 615 800 328 800 q 1060 658 947 800 q 1116 537 1094 615 q 1138 374 1138 458 q 1135 304 1138 365 l 519 304 q 556 222 519 244 q 686 199 592 199 q 1135 261 885 199 m 499 483 l 776 483 q 757 561 775 533 q 642 613 724 613 q 542 582 576 613 q 499 483 508 551 z "},"Ě":{"ha":1199,"x_min":90,"x_max":1153,"o":"m 1153 0 l 90 0 l 90 926 l 1153 926 l 1153 629 l 567 629 l 567 543 l 1153 543 l 1153 321 l 567 321 l 567 243 l 1153 243 l 1153 0 m 904 1094 l 793 965 l 410 965 l 294 1094 l 544 1094 l 599 1047 l 642 1094 l 904 1094 z "},"ě":{"ha":1182,"x_min":44,"x_max":1138,"o":"m 1135 261 l 1042 47 q 564 -19 751 -19 q 179 75 313 -19 q 44 375 44 171 q 86 574 44 483 q 200 713 128 664 q 615 800 328 800 q 1060 658 947 800 q 1116 537 1094 615 q 1138 374 1138 458 q 1135 304 1138 365 l 519 304 q 556 222 519 244 q 688 199 592 199 q 1135 261 885 199 m 499 483 l 776 483 q 757 561 775 533 q 643 613 724 613 q 542 582 576 613 q 499 483 508 551 m 992 1011 l 849 860 l 344 860 l 190 1011 l 499 1011 l 593 931 l 679 1011 l 992 1011 z "},"Ĝ":{"ha":1279,"x_min":54,"x_max":1208,"o":"m 1208 467 l 1208 49 q 708 -19 919 -19 q 251 76 422 -19 q 54 467 54 188 q 225 833 54 713 q 682 946 383 946 q 1193 889 944 946 l 1193 567 q 811 607 994 607 q 586 558 656 607 q 513 410 513 511 q 569 274 513 324 q 721 224 625 224 q 778 226 736 224 l 778 467 l 1208 467 m 972 965 l 711 965 l 668 1013 l 614 965 l 364 965 l 479 1094 l 861 1094 l 972 965 z "},"ĝ":{"ha":1272,"x_min":44,"x_max":1197,"o":"m 1197 781 l 1197 146 q 1072 -118 1197 -37 q 531 -200 944 -200 q 126 -181 344 -200 l 101 32 q 456 -8 272 -8 q 731 60 681 -8 q 747 129 747 82 q 610 74 679 90 q 442 58 542 58 q 149 138 238 58 q 44 425 44 229 q 150 721 44 628 q 439 800 242 800 q 629 774 558 800 q 747 689 700 749 l 747 781 l 1197 781 m 610 581 q 514 541 549 581 q 479 433 479 501 q 514 315 479 357 q 610 272 549 272 q 706 315 671 272 q 740 432 740 357 q 705 541 740 501 q 610 581 669 581 m 1036 860 l 725 860 l 638 940 l 544 860 l 236 860 l 389 1011 l 893 1011 l 1036 860 z "},"Ğ":{"ha":1279,"x_min":54,"x_max":1208,"o":"m 1208 467 l 1208 49 q 708 -19 919 -19 q 251 76 422 -19 q 54 467 54 188 q 225 833 54 713 q 682 946 383 946 q 1193 889 944 946 l 1193 567 q 811 607 994 607 q 586 558 656 607 q 513 410 513 511 q 569 274 513 324 q 721 224 625 224 q 778 226 736 224 l 778 467 l 1208 467 m 388 1139 l 511 1139 q 560 1099 525 1111 q 668 1088 594 1088 q 776 1099 742 1088 q 825 1139 811 1111 l 949 1139 q 900 1031 944 1074 q 668 963 831 963 q 436 1031 506 963 q 388 1139 392 1074 z "},"ğ":{"ha":1272,"x_min":44,"x_max":1197,"o":"m 1197 781 l 1197 146 q 1072 -118 1197 -37 q 531 -200 944 -200 q 126 -181 344 -200 l 101 32 q 456 -8 272 -8 q 731 60 681 -8 q 747 129 747 82 q 610 74 679 90 q 442 58 542 58 q 149 138 238 58 q 44 425 44 229 q 150 721 44 628 q 439 800 242 800 q 629 774 558 800 q 747 689 700 749 l 747 781 l 1197 781 m 610 581 q 514 541 549 581 q 479 433 479 501 q 514 315 479 357 q 610 272 549 272 q 706 315 671 272 q 740 432 740 357 q 705 541 740 501 q 610 581 669 581 m 300 1058 l 439 1058 q 499 1000 454 1017 q 636 983 543 983 q 774 1000 729 983 q 833 1058 818 1017 l 972 1058 q 914 929 967 978 q 636 847 831 847 q 357 929 443 847 q 300 1058 304 981 z "},"Ġ":{"ha":1279,"x_min":54,"x_max":1208,"o":"m 1208 467 l 1208 49 q 708 -19 919 -19 q 251 76 422 -19 q 54 467 54 188 q 225 833 54 713 q 682 946 383 946 q 1193 889 944 946 l 1193 567 q 811 607 994 607 q 586 558 656 607 q 513 410 513 511 q 569 274 513 324 q 721 224 625 224 q 778 226 736 224 l 778 467 l 1208 467 m 547 967 l 547 1103 l 789 1103 l 789 967 l 547 967 z "},"ġ":{"ha":1272,"x_min":44,"x_max":1197,"o":"m 1197 781 l 1197 146 q 1072 -118 1197 -37 q 531 -200 944 -200 q 126 -181 344 -200 l 101 32 q 456 -8 272 -8 q 731 60 681 -8 q 747 129 747 82 q 610 74 679 90 q 442 58 542 58 q 149 138 238 58 q 44 425 44 229 q 150 721 44 628 q 439 800 242 800 q 629 774 558 800 q 747 689 700 749 l 747 781 l 1197 781 m 610 581 q 514 541 549 581 q 479 433 479 501 q 514 315 479 357 q 610 272 549 272 q 706 315 671 272 q 740 432 740 357 q 705 541 740 501 q 610 581 669 581 m 521 863 l 521 1006 l 753 1006 l 753 863 l 521 863 z "},"Ģ":{"ha":1279,"x_min":54,"x_max":1208,"o":"m 1208 467 l 1208 49 q 708 -19 919 -19 q 251 76 422 -19 q 54 467 54 188 q 225 833 54 713 q 682 946 383 946 q 1193 889 944 946 l 1193 567 q 811 607 994 607 q 586 558 656 607 q 513 410 513 511 q 569 274 513 324 q 721 224 625 224 q 778 226 736 224 l 778 467 l 1208 467 m 903 -56 l 768 -208 l 446 -208 l 503 -56 l 903 -56 z "},"ģ":{"ha":1272,"x_min":44,"x_max":1197,"o":"m 1197 781 l 1197 146 q 1072 -118 1197 -37 q 531 -200 944 -200 q 126 -181 344 -200 l 101 32 q 456 -8 272 -8 q 731 60 681 -8 q 747 129 747 82 q 610 74 679 90 q 442 58 542 58 q 149 138 238 58 q 44 425 44 229 q 150 721 44 628 q 439 800 242 800 q 629 774 558 800 q 747 689 700 749 l 747 781 l 1197 781 m 610 581 q 514 541 549 581 q 479 433 479 501 q 514 315 479 357 q 610 272 549 272 q 706 315 671 272 q 740 432 740 357 q 705 541 740 501 q 610 581 669 581 m 925 1022 l 828 860 l 346 860 l 556 1022 l 925 1022 z "},"Ĥ":{"ha":1374,"x_min":90,"x_max":1282,"o":"m 1282 0 l 806 0 l 806 288 l 567 288 l 567 0 l 90 0 l 90 926 l 567 926 l 567 599 l 806 599 l 806 926 l 1282 926 l 1282 0 m 990 965 l 729 965 l 686 1013 l 632 965 l 382 965 l 497 1094 l 879 1094 l 990 965 z "},"Ī":{"ha":664,"x_min":39,"x_max":625,"o":"m 569 0 l 93 0 l 93 926 l 569 926 l 569 0 m 625 967 l 39 967 l 39 1107 l 625 1107 l 625 967 z "},"ī":{"ha":600,"x_min":26,"x_max":572,"o":"m 524 0 l 75 0 l 75 794 q 300 781 157 781 q 524 794 442 781 l 524 0 m 572 860 l 26 860 l 26 1000 l 572 1000 l 572 860 z "},"Į":{"ha":664,"x_min":93,"x_max":625,"o":"m 569 926 l 569 0 q 527 -61 536 -43 q 518 -99 518 -79 q 589 -150 518 -150 q 625 -146 599 -150 l 625 -268 q 550 -274 588 -274 q 424 -240 469 -274 q 378 -144 378 -206 q 442 0 378 -76 l 93 0 l 93 926 l 569 926 z "},"į":{"ha":600,"x_min":75,"x_max":581,"o":"m 525 794 l 525 0 q 483 -61 492 -43 q 474 -99 474 -79 q 544 -150 474 -150 q 581 -146 553 -150 l 581 -268 q 506 -274 543 -274 q 379 -240 425 -274 q 333 -144 333 -206 q 397 0 333 -76 l 75 0 l 75 794 q 300 781 157 781 q 525 794 443 781 m 525 950 l 525 864 q 515 833 525 840 q 469 825 504 825 l 146 825 q 101 833 111 825 q 90 864 90 840 l 90 950 q 101 981 90 974 q 146 989 111 989 l 469 989 q 515 981 504 989 q 525 950 525 974 z "},"İ":{"ha":664,"x_min":93,"x_max":569,"o":"m 569 0 l 93 0 l 93 926 l 569 926 l 569 0 m 210 967 l 210 1103 l 451 1103 l 451 967 l 210 967 z "},"ı":{"ha":600,"x_min":75,"x_max":525,"o":"m 525 0 l 75 0 l 75 794 q 300 781 157 781 q 525 794 443 781 l 525 0 z "},"Ĳ":{"ha":1558,"x_min":93,"x_max":1472,"o":"m 569 0 l 93 0 l 93 926 l 569 926 l 569 0 m 685 19 l 685 328 q 843 304 775 304 q 965 336 933 304 q 996 463 996 368 l 996 926 l 1472 926 l 1472 307 q 1369 58 1472 136 q 1042 -19 1267 -19 q 685 19 867 -19 z "},"ĳ":{"ha":1201,"x_min":75,"x_max":1135,"o":"m 525 0 l 75 0 l 75 794 q 300 781 157 781 q 525 794 443 781 l 525 0 m 525 950 l 525 864 q 515 833 525 840 q 469 825 504 825 l 146 825 q 101 833 111 825 q 90 864 90 840 l 90 950 q 101 981 90 974 q 146 989 111 989 l 469 989 q 515 981 504 989 q 525 950 525 974 m 583 -181 l 583 40 q 622 36 617 36 q 681 71 668 36 q 685 154 685 85 l 685 794 q 906 781 772 781 q 1135 794 1047 781 l 1135 118 q 1119 -37 1135 15 q 1064 -124 1104 -89 q 956 -172 1025 -158 q 749 -185 886 -185 q 583 -181 700 -185 m 1135 950 l 1135 864 q 1125 832 1135 839 q 1079 825 1115 825 l 756 825 q 710 833 721 825 q 700 864 700 840 l 700 950 q 710 981 700 974 q 756 989 721 989 l 1079 989 q 1125 982 1115 989 q 1135 950 1135 975 z "},"Ķ":{"ha":1333,"x_min":90,"x_max":1358,"o":"m 1333 0 l 794 0 l 567 296 l 567 0 l 90 0 l 90 926 l 567 926 l 567 569 l 794 926 l 1358 926 l 969 450 l 1333 0 m 892 -56 l 758 -208 l 435 -208 l 492 -56 l 892 -56 z "},"ķ":{"ha":1192,"x_min":75,"x_max":1215,"o":"m 1160 0 l 693 0 l 525 263 l 525 0 l 75 0 l 75 965 l 525 965 l 525 460 l 693 781 l 1215 781 l 919 385 l 1160 0 m 803 -56 l 668 -208 l 383 -208 l 440 -56 l 803 -56 z "},"Ĺ":{"ha":1003,"x_min":90,"x_max":972,"o":"m 972 0 l 90 0 l 90 926 l 567 926 l 567 328 l 972 328 l 972 0 m 474 967 l 108 967 l 210 1081 l 610 1081 l 474 967 z "},"ĺ":{"ha":600,"x_min":75,"x_max":579,"o":"m 525 0 l 75 0 l 75 965 l 525 965 l 525 0 m 442 1006 l 76 1006 l 178 1119 l 579 1119 l 442 1006 z "},"Ļ":{"ha":1003,"x_min":90,"x_max":972,"o":"m 972 0 l 90 0 l 90 926 l 567 926 l 567 328 l 972 328 l 972 0 m 726 -56 l 592 -208 l 269 -208 l 326 -56 l 726 -56 z "},"ļ":{"ha":600,"x_min":75,"x_max":525,"o":"m 525 0 l 75 0 l 75 965 l 525 965 l 525 0 m 507 -56 l 372 -208 l 88 -208 l 144 -56 l 507 -56 z "},"Ľ":{"ha":1003,"x_min":90,"x_max":1001,"o":"m 972 0 l 90 0 l 90 926 l 567 926 l 567 328 l 972 328 l 972 0 m 1001 926 l 858 600 l 665 600 l 732 926 l 1001 926 z "},"ľ":{"ha":879,"x_min":75,"x_max":907,"o":"m 525 0 l 75 0 l 75 965 l 525 965 l 525 0 m 907 965 l 764 640 l 571 640 l 638 965 l 907 965 z "},"Ŀ":{"ha":1003,"x_min":90,"x_max":1004,"o":"m 972 0 l 90 0 l 90 926 l 567 926 l 567 328 l 972 328 l 972 0 m 646 560 q 825 696 646 696 q 1004 560 1004 696 q 957 453 1004 490 q 824 415 910 415 q 693 453 740 415 q 646 560 646 492 z "},"ŀ":{"ha":997,"x_min":75,"x_max":997,"o":"m 525 0 l 75 0 l 75 965 l 525 965 l 525 0 m 649 569 q 673 586 649 569 q 799 603 697 603 q 949 569 900 603 q 997 467 997 536 q 944 361 997 399 q 797 324 892 324 q 652 362 704 324 q 600 467 600 400 q 649 569 600 536 z "},"Ł":{"ha":1003,"x_min":15,"x_max":972,"o":"m 567 474 l 567 328 l 972 328 l 972 0 l 90 0 l 90 206 l 15 157 l 15 367 l 90 415 l 90 926 l 567 926 l 567 683 l 733 790 l 733 581 l 567 474 z "},"ł":{"ha":600,"x_min":15,"x_max":583,"o":"m 75 281 l 15 242 l 15 451 l 75 490 l 75 965 l 525 965 l 525 742 l 583 779 l 583 569 l 525 532 l 525 0 l 75 0 l 75 281 z "},"Ń":{"ha":1374,"x_min":90,"x_max":1282,"o":"m 1282 0 l 863 0 l 540 415 l 540 0 l 90 0 l 90 926 l 568 926 l 832 539 l 832 926 l 1282 926 l 1282 0 m 800 967 l 435 967 l 538 1081 l 938 1081 l 800 967 z "},"ń":{"ha":1276,"x_min":75,"x_max":1201,"o":"m 1201 0 l 751 0 l 751 382 q 726 464 751 439 q 643 489 701 489 q 553 461 581 489 q 525 372 525 433 l 525 0 l 75 0 l 75 781 l 525 781 l 525 663 q 658 769 582 739 q 861 800 733 800 q 1118 722 1035 800 q 1201 485 1201 644 l 1201 0 m 404 860 l 501 1022 l 983 1022 l 774 860 l 404 860 z "},"Ņ":{"ha":1374,"x_min":90,"x_max":1282,"o":"m 1282 0 l 863 0 l 540 415 l 540 0 l 90 0 l 90 926 l 568 926 l 832 539 l 832 926 l 1282 926 l 1282 0 m 911 -56 l 778 -208 l 454 -208 l 511 -56 l 911 -56 z "},"ņ":{"ha":1276,"x_min":75,"x_max":1201,"o":"m 1201 0 l 751 0 l 751 382 q 726 464 751 439 q 643 489 701 489 q 553 461 581 489 q 525 372 525 433 l 525 0 l 75 0 l 75 781 l 525 781 l 525 663 q 658 769 582 739 q 861 800 733 800 q 1118 722 1035 800 q 1201 485 1201 644 l 1201 0 m 844 -56 l 711 -208 l 425 -208 l 482 -56 l 844 -56 z "},"Ň":{"ha":1374,"x_min":90,"x_max":1282,"o":"m 1282 0 l 863 0 l 540 415 l 540 0 l 90 0 l 90 926 l 568 926 l 832 539 l 832 926 l 1282 926 l 1282 0 m 990 1094 l 879 965 l 497 965 l 382 1094 l 632 1094 l 686 1047 l 729 1094 l 990 1094 z "},"ň":{"ha":1276,"x_min":75,"x_max":1201,"o":"m 1201 0 l 751 0 l 751 382 q 726 464 751 439 q 643 489 701 489 q 553 461 581 489 q 525 372 525 433 l 525 0 l 75 0 l 75 781 l 525 781 l 525 663 q 658 769 582 739 q 861 800 733 800 q 1118 722 1035 800 q 1201 485 1201 644 l 1201 0 m 1039 1011 l 896 860 l 392 860 l 238 1011 l 546 1011 l 640 931 l 726 1011 l 1039 1011 z "},"Ō":{"ha":1386,"x_min":54,"x_max":1333,"o":"m 690 953 q 1176 831 1018 953 q 1333 457 1333 710 q 1292 241 1333 338 q 1175 90 1250 144 q 693 -26 1013 -26 q 213 90 375 -26 q 54 463 54 206 q 231 846 54 733 q 690 953 396 953 m 693 639 q 575 593 615 639 q 535 460 535 547 q 693 242 535 242 q 853 458 853 242 q 693 639 853 639 m 986 967 l 401 967 l 401 1107 l 986 1107 l 986 967 z "},"ō":{"ha":1200,"x_min":44,"x_max":1156,"o":"m 613 807 q 853 788 765 807 q 1011 718 942 768 q 1156 400 1156 617 q 1017 72 1156 179 q 606 -26 889 -26 q 176 76 308 -26 q 44 408 44 178 q 174 707 44 614 q 348 783 246 760 q 613 807 450 807 m 604 542 q 461 397 461 542 q 604 222 461 222 q 747 394 747 222 q 713 506 747 471 q 604 542 678 542 m 872 860 l 326 860 l 326 1000 l 872 1000 l 872 860 z "},"Ő":{"ha":1386,"x_min":54,"x_max":1333,"o":"m 690 953 q 1176 831 1018 953 q 1333 457 1333 710 q 1292 241 1333 338 q 1175 90 1250 144 q 693 -26 1013 -26 q 213 90 375 -26 q 54 463 54 206 q 231 846 54 733 q 690 953 396 953 m 693 639 q 575 593 615 639 q 535 460 535 547 q 693 242 535 242 q 853 458 853 242 q 693 639 853 639 m 543 967 l 260 967 l 363 1081 l 681 1081 l 543 967 m 990 967 l 707 967 l 808 1081 l 1126 1081 l 990 967 z "},"ő":{"ha":1200,"x_min":44,"x_max":1156,"o":"m 613 807 q 853 788 765 807 q 1011 718 942 768 q 1156 400 1156 617 q 1017 72 1156 179 q 606 -26 889 -26 q 176 76 308 -26 q 44 408 44 178 q 174 707 44 614 q 348 783 246 760 q 613 807 450 807 m 604 542 q 461 397 461 542 q 604 222 461 222 q 747 394 747 222 q 713 506 747 471 q 604 542 678 542 m 213 860 l 310 1022 l 643 1022 l 461 860 l 213 860 m 631 860 l 728 1022 l 1061 1022 l 878 860 l 631 860 z "},"Œ":{"ha":2092,"x_min":54,"x_max":2046,"o":"m 2046 0 l 1036 0 l 1036 108 q 875 8 957 36 q 661 -19 793 -19 q 231 89 381 -19 q 101 249 147 150 q 54 468 54 349 q 99 687 54 588 q 225 842 144 786 q 644 946 374 946 q 943 893 833 946 q 1036 815 996 868 l 1036 926 l 2046 926 l 2046 629 l 1460 629 l 1460 543 l 2046 543 l 2046 321 l 1460 321 l 1460 243 l 2046 243 l 2046 0 m 693 639 q 575 593 615 639 q 535 460 535 547 q 693 242 535 242 q 851 457 851 242 q 693 639 851 639 z "},"œ":{"ha":1843,"x_min":44,"x_max":1799,"o":"m 1796 261 l 1701 47 q 1306 -28 1518 -28 q 1119 -10 1183 -28 q 960 68 1056 8 q 794 -10 857 7 q 599 -26 731 -26 q 177 76 310 -26 q 44 401 44 179 q 172 707 44 613 q 348 783 246 760 q 610 807 450 807 q 822 788 744 807 q 965 719 899 769 q 1029 757 1001 743 q 1347 807 1136 807 q 1708 697 1608 807 q 1774 567 1750 654 q 1799 376 1799 479 q 1796 304 1799 368 l 1181 304 q 1217 220 1181 243 q 1347 197 1253 197 q 1563 215 1433 197 q 1796 261 1692 233 m 604 542 q 461 396 461 542 q 604 221 461 221 q 747 394 747 221 q 713 506 747 471 q 604 542 678 542 m 1160 483 l 1438 483 q 1418 561 1436 535 q 1304 613 1385 613 q 1203 582 1238 613 q 1160 483 1169 551 z "},"Ŕ":{"ha":1378,"x_min":90,"x_max":1347,"o":"m 1347 0 l 794 0 l 567 293 l 567 0 l 90 0 l 90 926 l 983 926 q 1218 865 1142 926 q 1292 774 1265 829 q 1318 657 1318 719 q 1217 451 1318 531 q 1028 385 1146 397 l 1347 0 m 567 488 l 713 488 q 803 504 774 488 q 846 592 846 531 q 822 659 846 639 q 740 679 797 679 l 567 679 l 567 488 m 803 967 l 438 967 l 539 1081 l 940 1081 l 803 967 z "},"ŕ":{"ha":872,"x_min":75,"x_max":847,"o":"m 525 0 l 75 0 l 75 781 l 494 781 l 494 582 q 597 768 525 718 q 751 801 644 801 q 847 794 792 801 l 847 360 q 686 357 731 361 q 606 338 642 353 q 542 288 558 318 q 525 196 525 258 l 525 0 m 183 860 l 281 1022 l 763 1022 l 554 860 l 183 860 z "},"Ŗ":{"ha":1378,"x_min":90,"x_max":1347,"o":"m 1347 0 l 794 0 l 567 293 l 567 0 l 90 0 l 90 926 l 983 926 q 1218 865 1142 926 q 1292 774 1265 829 q 1318 657 1318 719 q 1217 451 1318 531 q 1028 385 1146 397 l 1347 0 m 567 488 l 713 488 q 803 504 774 488 q 846 592 846 531 q 822 659 846 639 q 740 679 797 679 l 567 679 l 567 488 m 914 -56 l 781 -208 l 457 -208 l 514 -56 l 914 -56 z "},"ŗ":{"ha":872,"x_min":75,"x_max":847,"o":"m 525 0 l 75 0 l 75 781 l 494 781 l 494 582 q 597 768 525 718 q 751 801 644 801 q 847 794 792 801 l 847 360 q 686 357 731 361 q 606 338 642 353 q 542 288 558 318 q 525 196 525 258 l 525 0 m 507 -56 l 372 -208 l 88 -208 l 144 -56 l 507 -56 z "},"Ř":{"ha":1378,"x_min":90,"x_max":1347,"o":"m 1347 0 l 794 0 l 567 293 l 567 0 l 90 0 l 90 926 l 983 926 q 1218 865 1142 926 q 1292 774 1265 829 q 1318 657 1318 719 q 1217 451 1318 531 q 1028 385 1146 397 l 1347 0 m 567 488 l 713 488 q 803 504 774 488 q 846 592 846 531 q 822 659 846 639 q 740 679 797 679 l 567 679 l 567 488 m 993 1094 l 882 965 l 499 965 l 385 1094 l 635 1094 l 689 1047 l 732 1094 l 993 1094 z "},"ř":{"ha":872,"x_min":36,"x_max":847,"o":"m 525 0 l 75 0 l 75 781 l 494 781 l 494 582 q 597 768 525 718 q 751 801 644 801 q 847 794 792 801 l 847 360 q 686 357 731 361 q 606 338 642 353 q 542 288 558 318 q 525 196 525 258 l 525 0 m 836 1011 l 694 860 l 189 860 l 36 1011 l 344 1011 l 438 931 l 525 1011 l 836 1011 z "},"Ś":{"ha":1178,"x_min":39,"x_max":1135,"o":"m 64 28 l 64 282 q 582 238 354 238 q 646 279 646 238 q 632 304 646 297 q 581 311 618 311 l 503 311 q 328 322 436 311 q 93 428 161 340 q 39 606 39 496 q 149 850 39 768 q 610 946 278 946 q 1099 900 864 946 l 1099 628 q 725 660 893 660 l 621 660 q 532 618 532 660 q 546 590 532 600 q 583 579 560 579 l 750 579 q 989 544 892 579 q 1094 456 1054 519 q 1135 314 1135 393 q 1097 171 1135 238 q 990 61 1058 104 q 828 -2 918 15 q 578 -19 738 -19 q 64 28 324 -19 m 703 967 l 338 967 l 439 1081 l 840 1081 l 703 967 z "},"ś":{"ha":1025,"x_min":29,"x_max":996,"o":"m 960 782 l 960 535 q 626 553 807 553 q 495 547 525 553 q 465 521 465 540 q 485 500 465 504 q 560 496 500 496 l 639 496 q 839 486 807 493 q 956 417 915 472 q 996 272 996 363 q 959 125 996 189 q 858 32 922 61 q 500 -19 743 -19 q 81 8 326 -19 l 63 238 q 408 211 282 211 q 569 217 556 211 q 583 240 583 221 q 544 265 583 265 l 458 264 q 149 307 228 264 q 29 528 29 369 q 153 750 29 683 q 536 800 244 800 q 960 782 776 800 m 279 860 l 376 1022 l 858 1022 l 649 860 l 279 860 z "},"Ŝ":{"ha":1178,"x_min":39,"x_max":1135,"o":"m 64 28 l 64 282 q 582 238 354 238 q 646 279 646 238 q 632 304 646 297 q 581 311 618 311 l 503 311 q 328 322 436 311 q 93 428 161 340 q 39 606 39 496 q 149 850 39 768 q 610 946 278 946 q 1099 900 864 946 l 1099 628 q 725 660 893 660 l 621 660 q 532 618 532 660 q 546 590 532 600 q 583 579 560 579 l 750 579 q 989 544 892 579 q 1094 456 1054 519 q 1135 314 1135 393 q 1097 171 1135 238 q 990 61 1058 104 q 828 -2 918 15 q 578 -19 738 -19 q 64 28 324 -19 m 911 965 l 650 965 l 607 1013 l 553 965 l 303 965 l 418 1094 l 800 1094 l 911 965 z "},"ŝ":{"ha":1025,"x_min":29,"x_max":996,"o":"m 960 782 l 960 535 q 626 553 807 553 q 495 547 525 553 q 465 521 465 540 q 485 500 465 504 q 560 496 500 496 l 639 496 q 839 486 807 493 q 956 417 915 472 q 996 272 996 363 q 959 125 996 189 q 858 32 922 61 q 500 -19 743 -19 q 81 8 326 -19 l 63 238 q 408 211 282 211 q 569 217 556 211 q 583 240 583 221 q 544 265 583 265 l 458 264 q 149 307 228 264 q 29 528 29 369 q 153 750 29 683 q 536 800 244 800 q 960 782 776 800 m 913 860 l 601 860 l 514 940 l 421 860 l 113 860 l 267 1011 l 771 1011 l 913 860 z "},"Ş":{"ha":1178,"x_min":39,"x_max":1135,"o":"m 760 -11 l 633 -185 l 265 -185 l 397 -14 q 64 28 249 -6 l 64 282 q 582 236 350 236 q 646 278 646 236 q 632 304 646 297 q 581 311 618 311 l 503 311 q 328 322 436 311 q 93 428 161 340 q 39 606 39 496 q 149 850 39 768 q 610 946 278 946 q 1099 900 864 946 l 1099 628 q 725 660 893 660 l 621 660 q 532 618 532 660 q 546 590 532 600 q 583 579 560 579 l 750 579 q 989 544 892 579 q 1094 456 1054 519 q 1135 314 1135 393 q 1067 128 1135 208 q 882 11 1000 47 q 760 -11 836 -3 z "},"ş":{"ha":1025,"x_min":29,"x_max":996,"o":"m 649 -14 l 515 -185 l 225 -185 l 361 -15 q 81 8 204 -6 l 63 238 q 408 211 282 211 q 569 217 556 211 q 583 240 583 221 q 544 265 583 265 l 458 264 q 149 307 228 264 q 29 528 29 369 q 153 750 29 683 q 536 800 244 800 q 960 782 776 800 l 960 535 q 626 553 808 553 q 495 547 525 553 q 465 521 465 540 q 485 500 465 504 q 560 496 500 496 l 639 496 q 839 486 807 493 q 956 417 915 472 q 996 272 996 363 q 911 67 996 140 q 649 -14 836 0 z "},"Š":{"ha":1178,"x_min":39,"x_max":1135,"o":"m 64 28 l 64 282 q 582 238 354 238 q 646 279 646 238 q 632 304 646 297 q 581 311 618 311 l 503 311 q 328 322 436 311 q 93 428 161 340 q 39 606 39 496 q 149 850 39 768 q 610 946 278 946 q 1099 900 864 946 l 1099 628 q 725 660 893 660 l 621 660 q 532 618 532 660 q 546 590 532 600 q 583 579 560 579 l 750 579 q 989 544 892 579 q 1094 456 1054 519 q 1135 314 1135 393 q 1097 171 1135 238 q 990 61 1058 104 q 828 -2 918 15 q 578 -19 738 -19 q 64 28 324 -19 m 893 1094 l 782 965 l 399 965 l 285 1094 l 535 1094 l 589 1047 l 632 1094 l 893 1094 z "},"š":{"ha":1025,"x_min":29,"x_max":996,"o":"m 960 782 l 960 535 q 626 553 807 553 q 495 547 525 553 q 465 521 465 540 q 485 500 465 504 q 560 496 500 496 l 639 496 q 839 486 807 493 q 956 417 915 472 q 996 272 996 363 q 959 125 996 189 q 858 32 922 61 q 500 -19 743 -19 q 81 8 326 -19 l 63 238 q 408 211 282 211 q 569 217 556 211 q 583 240 583 221 q 544 265 583 265 l 458 264 q 149 307 228 264 q 29 528 29 369 q 153 750 29 683 q 536 800 244 800 q 960 782 776 800 m 913 1011 l 771 860 l 267 860 l 113 1011 l 421 1011 l 514 931 l 601 1011 l 913 1011 z "},"Ţ":{"ha":1014,"x_min":-10,"x_max":1024,"o":"m 744 0 l 268 0 l 268 558 l -10 558 l -10 926 l 1024 926 l 1024 558 l 744 558 l 744 0 m 732 -56 l 599 -208 l 275 -208 l 332 -56 l 732 -56 z "},"ţ":{"ha":925,"x_min":0,"x_max":893,"o":"m 839 233 l 782 15 q 429 -19 617 -19 q 202 28 269 -19 q 135 189 135 76 l 135 468 l 0 468 l 0 626 l 336 926 l 583 926 l 583 781 l 893 781 l 893 468 l 583 468 l 583 307 q 606 239 583 253 q 714 225 628 225 q 839 233 775 225 m 650 -56 l 517 -208 l 231 -208 l 288 -56 l 650 -56 z "},"Ť":{"ha":1014,"x_min":-10,"x_max":1024,"o":"m 744 0 l 268 0 l 268 558 l -10 558 l -10 926 l 1024 926 l 1024 558 l 744 558 l 744 0 m 811 1094 l 700 965 l 317 965 l 203 1094 l 453 1094 l 507 1047 l 550 1094 l 811 1094 z "},"ť":{"ha":925,"x_min":0,"x_max":954,"o":"m 839 233 l 782 15 q 429 -19 617 -19 q 202 28 269 -19 q 135 189 135 76 l 135 468 l 0 468 l 0 626 l 336 926 l 583 926 l 583 781 l 893 781 l 893 468 l 583 468 l 583 307 q 606 239 583 253 q 714 225 628 225 q 839 233 775 225 m 954 1104 l 839 853 l 636 853 l 683 1104 l 954 1104 z "},"ũ":{"ha":1235,"x_min":75,"x_max":1160,"o":"m 1160 781 l 1160 307 q 1051 68 1160 142 q 618 -19 918 -19 q 183 68 317 -19 q 75 307 75 142 l 75 781 l 525 781 l 525 333 q 545 242 525 267 q 618 217 565 217 q 690 242 671 217 q 710 333 710 267 l 710 781 l 1160 781 m 782 1010 l 933 1010 q 855 879 910 926 q 725 832 800 832 q 601 856 686 832 q 494 876 522 876 q 446 846 461 876 l 301 846 q 343 947 314 910 q 488 1021 401 1021 q 622 997 529 1021 q 728 975 703 975 q 782 1010 769 975 z "},"Ū":{"ha":1315,"x_min":86,"x_max":1229,"o":"m 86 926 l 563 926 l 563 357 q 576 276 563 296 q 658 244 599 244 q 739 276 717 244 q 753 357 753 296 l 753 926 l 1229 926 l 1229 367 q 1207 189 1229 249 q 1125 83 1185 129 q 658 -19 990 -19 q 174 97 303 -19 q 104 201 122 143 q 86 379 86 258 l 86 926 m 950 967 l 364 967 l 364 1107 l 950 1107 l 950 967 z "},"ū":{"ha":1235,"x_min":75,"x_max":1160,"o":"m 1160 781 l 1160 307 q 1051 68 1160 142 q 618 -19 918 -19 q 183 68 317 -19 q 75 307 75 142 l 75 781 l 525 781 l 525 333 q 545 242 525 267 q 618 217 565 217 q 690 242 671 217 q 710 333 710 267 l 710 781 l 1160 781 m 890 860 l 344 860 l 344 1000 l 890 1000 l 890 860 z "},"ŭ":{"ha":1235,"x_min":75,"x_max":1160,"o":"m 1160 781 l 1160 307 q 1051 68 1160 142 q 618 -19 918 -19 q 183 68 317 -19 q 75 307 75 142 l 75 781 l 525 781 l 525 333 q 545 242 525 267 q 618 217 565 217 q 690 242 671 217 q 710 333 710 267 l 710 781 l 1160 781 m 281 1058 l 419 1058 q 480 1000 436 1017 q 617 983 524 983 q 754 1000 710 983 q 815 1058 799 1017 l 953 1058 q 896 929 949 981 q 617 847 810 847 q 339 929 422 847 q 281 1058 286 978 z "},"Ů":{"ha":1315,"x_min":86,"x_max":1229,"o":"m 86 926 l 563 926 l 563 357 q 576 276 563 296 q 658 244 599 244 q 739 276 717 244 q 753 357 753 296 l 753 926 l 1229 926 l 1229 367 q 1207 189 1229 249 q 1125 83 1185 129 q 658 -19 990 -19 q 174 97 303 -19 q 104 201 122 143 q 86 379 86 258 l 86 926 m 667 1251 q 856 1217 796 1251 q 917 1111 917 1183 q 854 999 917 1035 q 661 963 792 963 q 460 998 522 963 q 399 1113 399 1033 q 461 1219 399 1186 q 667 1251 524 1251 m 719 1110 q 660 1160 719 1160 q 600 1110 600 1160 q 660 1049 600 1049 q 719 1110 719 1049 z "},"ů":{"ha":1235,"x_min":75,"x_max":1160,"o":"m 1160 781 l 1160 307 q 1051 68 1160 142 q 618 -19 918 -19 q 183 68 317 -19 q 75 307 75 142 l 75 781 l 525 781 l 525 333 q 545 242 525 267 q 618 217 565 217 q 690 242 671 217 q 710 333 710 267 l 710 781 l 1160 781 m 626 1133 q 816 1099 756 1133 q 876 993 876 1065 q 815 881 876 917 q 622 844 753 844 q 420 880 482 844 q 358 994 358 915 q 421 1101 358 1068 q 626 1133 483 1133 m 679 992 q 619 1042 679 1042 q 560 992 560 1042 q 619 931 560 931 q 679 992 679 931 z "},"Ű":{"ha":1315,"x_min":86,"x_max":1229,"o":"m 86 926 l 563 926 l 563 357 q 576 276 563 296 q 658 244 599 244 q 739 276 717 244 q 753 357 753 296 l 753 926 l 1229 926 l 1229 367 q 1207 189 1229 249 q 1125 83 1185 129 q 658 -19 990 -19 q 174 97 303 -19 q 104 201 122 143 q 86 379 86 258 l 86 926 m 507 967 l 224 967 l 325 1081 l 644 1081 l 507 967 m 954 967 l 671 967 l 772 1081 l 1090 1081 l 954 967 z "},"ű":{"ha":1235,"x_min":75,"x_max":1160,"o":"m 1160 781 l 1160 307 q 1051 68 1160 142 q 618 -19 918 -19 q 183 68 317 -19 q 75 307 75 142 l 75 781 l 525 781 l 525 333 q 545 242 525 267 q 618 217 565 217 q 690 242 671 217 q 710 333 710 267 l 710 781 l 1160 781 m 231 860 l 328 1022 l 661 1022 l 478 860 l 231 860 m 647 860 l 744 1022 l 1078 1022 l 896 860 l 647 860 z "},"Ų":{"ha":1315,"x_min":86,"x_max":1229,"o":"m 86 926 l 563 926 l 563 357 q 576 276 563 296 q 658 244 599 244 q 739 276 717 244 q 753 357 753 296 l 753 926 l 1229 926 l 1229 367 q 1207 189 1229 249 q 1125 85 1185 129 q 1004 25 1078 49 q 942 -19 967 13 q 918 -90 918 -51 q 989 -150 918 -150 q 1025 -146 997 -150 l 1025 -268 q 950 -274 988 -274 q 824 -240 869 -274 q 778 -144 778 -206 q 833 -11 778 -78 q 654 -19 736 -19 q 174 97 303 -19 q 104 201 122 143 q 86 379 86 258 l 86 926 z "},"ų":{"ha":1235,"x_min":75,"x_max":1160,"o":"m 75 781 l 525 781 l 525 333 q 545 242 525 267 q 618 217 565 217 q 690 242 671 217 q 710 333 710 267 l 710 781 l 1160 781 l 1160 307 q 1103 118 1160 189 q 928 14 1047 47 q 850 -85 850 -8 q 921 -146 850 -146 q 957 -142 931 -146 l 957 -262 q 882 -269 922 -269 q 756 -235 801 -269 q 710 -140 710 -201 q 758 -14 710 -83 q 613 -19 688 -19 q 183 68 314 -19 q 75 307 75 142 l 75 781 z "},"Ŵ":{"ha":1640,"x_min":-15,"x_max":1656,"o":"m 1399 0 l 933 0 l 817 422 l 699 0 l 244 0 l -15 926 l 464 926 l 560 468 l 671 926 l 985 926 l 1088 483 l 1186 926 l 1656 926 l 1399 0 m 1125 965 l 864 965 l 819 1013 l 767 965 l 515 965 l 631 1094 l 1014 1094 l 1125 965 z "},"Ŷ":{"ha":1250,"x_min":-15,"x_max":1265,"o":"m 865 0 l 390 0 l 390 267 l -15 926 l 517 926 l 640 646 l 751 926 l 1265 926 l 865 267 l 865 0 m 931 965 l 668 965 l 625 1013 l 571 965 l 321 965 l 436 1094 l 819 1094 l 931 965 z "},"ŷ":{"ha":1208,"x_min":-1,"x_max":1213,"o":"m 744 781 l 1213 781 l 922 161 q 749 -110 835 -28 q 651 -169 703 -153 q 503 -185 599 -185 l 88 -185 l 88 61 l 375 61 l -1 781 l 467 781 l 618 394 l 744 781 m 1004 860 l 693 860 l 606 940 l 513 860 l 204 860 l 357 1011 l 863 1011 l 1004 860 z "},"Ÿ":{"ha":1250,"x_min":-15,"x_max":1265,"o":"m 865 0 l 390 0 l 390 267 l -15 926 l 517 926 l 640 646 l 751 926 l 1265 926 l 865 267 l 865 0 m 321 967 l 321 1103 l 563 1103 l 563 967 l 321 967 m 689 967 l 689 1103 l 931 1103 l 931 967 l 689 967 z "},"Ź":{"ha":1107,"x_min":38,"x_max":1072,"o":"m 1072 0 l 38 0 l 38 207 l 460 601 l 38 601 l 38 926 l 1072 926 l 1072 650 l 675 303 l 1072 303 l 1072 0 m 694 967 l 329 967 l 431 1081 l 832 1081 l 694 967 z "},"ź":{"ha":1008,"x_min":42,"x_max":968,"o":"m 968 0 l 42 0 l 42 182 l 414 465 l 54 465 l 54 781 l 956 781 l 956 536 l 628 269 l 968 269 l 968 0 m 271 860 l 367 1022 l 849 1022 l 640 860 l 271 860 z "},"Ż":{"ha":1107,"x_min":38,"x_max":1072,"o":"m 1072 0 l 38 0 l 38 207 l 460 601 l 38 601 l 38 926 l 1072 926 l 1072 650 l 675 303 l 1072 303 l 1072 0 m 432 967 l 432 1103 l 674 1103 l 674 967 l 432 967 z "},"ż":{"ha":1008,"x_min":42,"x_max":968,"o":"m 968 0 l 42 0 l 42 182 l 414 465 l 54 465 l 54 781 l 956 781 l 956 536 l 628 269 l 968 269 l 968 0 m 389 863 l 389 1006 l 621 1006 l 621 863 l 389 863 z "},"Ž":{"ha":1107,"x_min":38,"x_max":1072,"o":"m 1072 0 l 38 0 l 38 207 l 460 601 l 38 601 l 38 926 l 1072 926 l 1072 650 l 675 303 l 1072 303 l 1072 0 m 857 1094 l 746 965 l 363 965 l 249 1094 l 499 1094 l 553 1047 l 596 1094 l 857 1094 z "},"ž":{"ha":1008,"x_min":42,"x_max":968,"o":"m 968 0 l 42 0 l 42 182 l 414 465 l 54 465 l 54 781 l 956 781 l 956 536 l 628 269 l 968 269 l 968 0 m 904 1011 l 761 860 l 257 860 l 104 1011 l 413 1011 l 506 931 l 593 1011 l 904 1011 z "},"ƒ":{"ha":739,"x_min":10,"x_max":731,"o":"m 667 596 l 639 428 l 518 428 l 450 44 q 381 -137 429 -82 q 284 -199 342 -182 q 111 -215 226 -215 q 10 -212 53 -215 l 42 -19 l 65 -19 q 126 -15 110 -19 q 150 4 143 -10 q 172 107 156 15 l 229 428 l 113 428 l 140 596 l 260 596 l 286 747 q 319 864 300 821 q 371 939 338 907 q 464 990 411 975 q 607 1006 517 1006 q 731 1003 671 1006 l 697 807 q 656 808 665 808 q 597 797 613 808 q 576 744 582 785 q 572 722 575 732 l 551 596 l 667 596 z "},"Ǎ":{"ha":1315,"x_min":-11,"x_max":1331,"o":"m 1331 0 l 851 0 l 818 119 l 508 119 l 475 0 l -11 0 l 285 926 l 1039 926 l 1331 0 m 763 372 l 667 665 l 567 372 l 763 372 m 963 1094 l 851 965 l 468 965 l 353 1094 l 603 1094 l 657 1047 l 700 1094 l 963 1094 z "},"ǎ":{"ha":1239,"x_min":47,"x_max":1192,"o":"m 1192 0 l 742 0 l 742 99 q 607 6 678 32 q 421 -19 536 -19 q 229 13 304 -19 q 110 114 154 44 q 47 390 47 213 q 147 708 47 611 q 431 800 243 800 q 742 671 643 800 l 742 781 l 1192 781 l 1192 0 m 717 487 q 699 507 717 487 q 621 526 682 526 q 525 488 560 526 q 490 381 490 449 q 525 262 490 304 q 621 219 560 219 q 717 262 682 219 q 751 378 751 304 q 717 487 751 447 m 1019 1011 l 878 860 l 372 860 l 219 1011 l 528 1011 l 621 931 l 708 1011 l 1019 1011 z "},"Ǔ":{"ha":1315,"x_min":86,"x_max":1229,"o":"m 86 926 l 563 926 l 563 357 q 576 276 563 296 q 658 244 599 244 q 739 276 717 244 q 753 357 753 296 l 753 926 l 1229 926 l 1229 367 q 1207 189 1229 249 q 1125 83 1185 129 q 658 -19 990 -19 q 174 97 303 -19 q 104 201 122 143 q 86 379 86 258 l 86 926 m 963 1094 l 851 965 l 468 965 l 353 1094 l 603 1094 l 657 1047 l 700 1094 l 963 1094 z "},"ǔ":{"ha":1235,"x_min":75,"x_max":1160,"o":"m 1160 781 l 1160 307 q 1051 68 1160 142 q 618 -19 918 -19 q 183 68 317 -19 q 75 307 75 142 l 75 781 l 525 781 l 525 333 q 545 242 525 267 q 618 217 565 217 q 690 242 671 217 q 710 333 710 267 l 710 781 l 1160 781 m 1018 1011 l 875 860 l 371 860 l 217 1011 l 525 1011 l 618 931 l 706 1011 l 1018 1011 z "},"Ǧ":{"ha":1279,"x_min":54,"x_max":1208,"o":"m 1208 467 l 1208 49 q 708 -19 919 -19 q 251 76 422 -19 q 54 467 54 188 q 225 833 54 713 q 682 946 383 946 q 1193 889 944 946 l 1193 567 q 811 607 994 607 q 586 558 656 607 q 513 410 513 511 q 569 274 513 324 q 721 224 625 224 q 778 226 736 224 l 778 467 l 1208 467 m 972 1094 l 861 965 l 479 965 l 364 1094 l 614 1094 l 668 1047 l 711 1094 l 972 1094 z "},"ǧ":{"ha":1272,"x_min":44,"x_max":1197,"o":"m 1197 781 l 1197 146 q 1072 -118 1197 -37 q 531 -200 944 -200 q 126 -181 344 -200 l 101 32 q 456 -8 272 -8 q 731 60 681 -8 q 747 129 747 82 q 610 74 679 90 q 442 58 542 58 q 149 138 238 58 q 44 425 44 229 q 150 721 44 628 q 439 800 242 800 q 629 774 558 800 q 747 689 700 749 l 747 781 l 1197 781 m 610 581 q 514 541 549 581 q 479 433 479 501 q 514 315 479 357 q 610 272 549 272 q 706 315 671 272 q 740 432 740 357 q 705 541 740 501 q 610 581 669 581 m 1036 1011 l 893 860 l 389 860 l 236 1011 l 544 1011 l 638 931 l 725 1011 l 1036 1011 z "},"Ǵ":{"ha":1279,"x_min":54,"x_max":1208,"o":"m 1208 467 l 1208 49 q 708 -19 919 -19 q 251 76 422 -19 q 54 467 54 188 q 225 833 54 713 q 682 946 383 946 q 1193 889 944 946 l 1193 567 q 811 607 994 607 q 586 558 656 607 q 513 410 513 511 q 569 274 513 324 q 721 224 625 224 q 778 226 736 224 l 778 467 l 1208 467 m 754 967 l 389 967 l 492 1081 l 892 1081 l 754 967 z "},"Ș":{"ha":1178,"x_min":39,"x_max":1135,"o":"m 64 28 l 64 282 q 582 238 354 238 q 646 279 646 238 q 632 304 646 297 q 581 311 618 311 l 503 311 q 328 322 436 311 q 93 428 161 340 q 39 606 39 496 q 149 850 39 768 q 610 946 278 946 q 1099 900 864 946 l 1099 628 q 725 660 893 660 l 621 660 q 532 618 532 660 q 546 590 532 600 q 583 579 560 579 l 750 579 q 989 544 892 579 q 1094 456 1054 519 q 1135 314 1135 393 q 1097 171 1135 238 q 990 61 1058 104 q 828 -2 918 15 q 578 -19 738 -19 q 64 28 324 -19 m 786 -56 l 653 -208 l 329 -208 l 386 -56 l 786 -56 z "},"ș":{"ha":1025,"x_min":29,"x_max":996,"o":"m 960 782 l 960 535 q 626 553 807 553 q 495 547 525 553 q 465 521 465 540 q 485 500 465 504 q 560 496 500 496 l 639 496 q 839 486 807 493 q 956 417 915 472 q 996 272 996 363 q 959 125 996 189 q 858 32 922 61 q 500 -19 743 -19 q 81 8 326 -19 l 63 238 q 408 211 282 211 q 569 217 556 211 q 583 240 583 221 q 544 265 583 265 l 458 264 q 149 307 228 264 q 29 528 29 369 q 153 750 29 683 q 536 800 244 800 q 960 782 776 800 m 692 -56 l 558 -208 l 272 -208 l 329 -56 l 692 -56 z "},"Ț":{"ha":1014,"x_min":-10,"x_max":1024,"o":"m 744 0 l 268 0 l 268 558 l -10 558 l -10 926 l 1024 926 l 1024 558 l 744 558 l 744 0 m 732 -56 l 599 -208 l 275 -208 l 332 -56 l 732 -56 z "},"ț":{"ha":925,"x_min":0,"x_max":893,"o":"m 839 233 l 782 15 q 429 -19 617 -19 q 202 28 269 -19 q 135 189 135 76 l 135 468 l 0 468 l 0 626 l 336 926 l 583 926 l 583 781 l 893 781 l 893 468 l 583 468 l 583 307 q 606 239 583 253 q 714 225 628 225 q 839 233 775 225 m 650 -56 l 517 -208 l 231 -208 l 288 -56 l 650 -56 z "},"ʼ":{"ha":565,"x_min":79,"x_max":485,"o":"m 485 965 l 314 638 l 79 638 l 189 965 l 485 965 z "},"ˆ":{"ha":694,"x_min":-53,"x_max":747,"o":"m 747 860 l 436 860 l 349 940 l 256 860 l -53 860 l 100 1011 l 606 1011 l 747 860 z "},"ˇ":{"ha":694,"x_min":-53,"x_max":747,"o":"m 747 1011 l 606 860 l 100 860 l -53 1011 l 256 1011 l 349 931 l 436 1011 l 747 1011 z "},"ˉ":{"ha":694,"x_min":75,"x_max":621,"o":"m 621 860 l 75 860 l 75 1000 l 621 1000 l 621 860 z "},"˘":{"ha":694,"x_min":11,"x_max":683,"o":"m 11 1058 l 150 1058 q 210 1000 165 1017 q 347 983 254 983 q 485 1000 440 983 q 544 1058 529 1017 l 683 1058 q 626 929 679 981 q 347 847 540 847 q 68 929 154 847 q 11 1058 15 981 z "},"˙":{"ha":694,"x_min":232,"x_max":464,"o":"m 232 863 l 232 1006 l 464 1006 l 464 863 l 232 863 z "},"˚":{"ha":694,"x_min":88,"x_max":606,"o":"m 356 1133 q 545 1099 485 1133 q 606 993 606 1065 q 544 881 606 917 q 351 844 482 844 q 149 880 211 844 q 88 994 88 915 q 150 1101 88 1068 q 356 1133 213 1133 m 408 992 q 349 1042 408 1042 q 289 992 289 1042 q 349 931 289 931 q 408 992 408 931 z "},"˛":{"ha":694,"x_min":440,"x_max":688,"o":"m 504 0 l 632 0 q 590 -61 600 -43 q 581 -99 581 -79 q 651 -150 581 -150 q 688 -146 661 -150 l 688 -268 q 613 -274 650 -274 q 486 -240 532 -274 q 440 -144 440 -206 q 504 0 440 -76 z "},"˜":{"ha":694,"x_min":31,"x_max":663,"o":"m 513 1010 l 663 1010 q 584 879 639 926 q 454 832 529 832 q 331 856 417 832 q 224 876 251 876 q 175 846 190 876 l 31 846 q 72 947 43 910 q 218 1021 131 1021 q 351 997 261 1021 q 458 975 432 975 q 513 1010 499 975 z "},"˝":{"ha":694,"x_min":-40,"x_max":808,"o":"m -40 860 l 57 1022 l 390 1022 l 208 860 l -40 860 m 378 860 l 474 1022 l 808 1022 l 625 860 l 378 860 z "},"·":{"ha":493,"x_min":65,"x_max":428,"o":"m 246 524 q 383 494 339 524 q 428 400 428 464 q 380 303 428 338 q 244 269 332 269 q 113 304 160 269 q 65 400 65 339 q 246 524 65 524 z "},"Ẅ":{"ha":1640,"x_min":-15,"x_max":1656,"o":"m 1399 0 l 933 0 l 817 422 l 699 0 l 244 0 l -15 926 l 464 926 l 560 468 l 671 926 l 985 926 l 1088 483 l 1186 926 l 1656 926 l 1399 0 m 515 967 l 515 1103 l 757 1103 l 757 967 l 515 967 m 883 967 l 883 1103 l 1125 1103 l 1125 967 l 883 967 z "}," ":{"ha":1149,"x_min":0,"x_max":0,"o":""},"‑":{"ha":472,"x_min":0,"x_max":472,"o":"m 472 268 l 0 268 l 0 528 l 472 528 l 472 268 z "},"‒":{"ha":1151,"x_min":75,"x_max":1076,"o":"m 1076 268 l 75 268 l 75 528 l 1076 528 l 1076 268 z "},"–":{"ha":1151,"x_min":75,"x_max":1076,"o":"m 1076 268 l 75 268 l 75 528 l 1076 528 l 1076 268 z "},"—":{"ha":1128,"x_min":0,"x_max":1128,"o":"m 1128 515 l 1128 278 l 0 278 l 0 515 l 1128 515 z "},"―":{"ha":1128,"x_min":0,"x_max":1128,"o":"m 1128 515 l 1128 278 l 0 278 l 0 515 l 1128 515 z "},"‘":{"ha":565,"x_min":79,"x_max":485,"o":"m 79 638 l 250 965 l 485 965 l 375 638 l 79 638 z "},"’":{"ha":565,"x_min":79,"x_max":485,"o":"m 485 965 l 314 638 l 79 638 l 189 965 l 485 965 z "},"‚":{"ha":565,"x_min":79,"x_max":485,"o":"m 485 222 l 314 -106 l 79 -106 l 189 222 l 485 222 z "},"“":{"ha":953,"x_min":79,"x_max":872,"o":"m 79 638 l 250 965 l 485 965 l 375 638 l 79 638 m 467 638 l 639 965 l 872 965 l 764 638 l 467 638 z "},"”":{"ha":953,"x_min":79,"x_max":872,"o":"m 872 965 l 701 638 l 467 638 l 576 965 l 872 965 m 485 965 l 314 638 l 79 638 l 189 965 l 485 965 z "},"„":{"ha":953,"x_min":79,"x_max":872,"o":"m 872 222 l 701 -106 l 467 -106 l 576 222 l 872 222 m 485 222 l 314 -106 l 79 -106 l 189 222 l 485 222 z "},"†":{"ha":947,"x_min":113,"x_max":835,"o":"m 835 693 l 835 454 l 608 454 l 608 -215 l 336 -215 l 336 454 l 113 454 l 113 693 l 336 693 l 336 926 l 608 926 l 608 693 l 835 693 z "},"‡":{"ha":947,"x_min":113,"x_max":835,"o":"m 835 699 l 835 468 l 608 468 l 608 244 l 835 244 l 835 15 l 608 15 l 608 -215 l 338 -215 l 338 15 l 113 15 l 113 244 l 338 244 l 338 468 l 113 468 l 113 699 l 338 699 l 338 926 l 608 926 l 608 699 l 835 699 z "},"•":{"ha":926,"x_min":272,"x_max":657,"o":"m 468 663 q 601 606 544 663 q 657 471 657 549 q 601 334 657 390 q 465 278 544 278 q 329 334 386 278 q 272 469 272 390 q 329 606 272 550 q 468 663 386 663 z "},"…":{"ha":1479,"x_min":65,"x_max":1414,"o":"m 246 240 q 383 210 339 240 q 428 117 428 181 q 380 22 428 56 q 244 -12 332 -12 q 113 22 160 -12 q 65 118 65 57 q 246 240 65 240 m 739 240 q 876 210 832 240 q 921 117 921 181 q 873 22 921 56 q 738 -12 825 -12 q 606 22 653 -12 q 558 118 558 57 q 739 240 558 240 m 1232 240 q 1369 210 1325 240 q 1414 117 1414 181 q 1366 22 1414 56 q 1231 -12 1318 -12 q 1099 22 1146 -12 q 1051 118 1051 57 q 1232 240 1051 240 z "},"‰":{"ha":1821,"x_min":58,"x_max":1763,"o":"m 289 940 q 448 872 386 940 q 510 694 510 803 q 447 517 510 585 q 285 450 385 450 q 122 519 185 450 q 58 700 58 589 q 124 872 58 804 q 289 940 189 940 m 286 821 q 217 693 217 821 q 285 568 217 568 q 354 697 354 568 q 286 821 354 821 m 893 926 l 521 3 l 385 3 l 757 926 l 893 926 m 999 479 q 1158 410 1096 479 q 1219 232 1219 342 q 1157 56 1219 124 q 994 -11 1094 -11 q 831 58 894 -11 q 768 239 768 128 q 833 411 768 343 q 999 479 899 479 m 996 360 q 926 233 926 360 q 994 107 926 107 q 1047 138 1031 107 q 1064 236 1064 168 q 996 360 1064 360 m 1542 479 q 1701 410 1639 479 q 1763 232 1763 342 q 1700 56 1763 124 q 1538 -11 1638 -11 q 1374 58 1438 -11 q 1311 239 1311 128 q 1376 411 1311 343 q 1542 479 1442 479 m 1539 360 q 1469 232 1469 360 q 1538 107 1469 107 q 1607 236 1607 107 q 1539 360 1607 360 z "},"‹":{"ha":317,"x_min":46,"x_max":263,"o":"m 263 57 l 46 221 l 46 471 l 263 635 l 263 422 l 163 349 l 263 274 l 263 57 z "},"›":{"ha":318,"x_min":54,"x_max":272,"o":"m 54 636 l 272 471 l 272 218 l 54 56 l 54 264 l 156 343 l 54 419 l 54 636 z "},"‾":{"ha":694,"x_min":0,"x_max":694,"o":"m 0 1160 l 694 1160 l 694 988 l 0 988 l 0 1160 z "},"⁄":{"ha":164,"x_min":-172,"x_max":338,"o":"m 338 926 l -36 0 l -172 0 l 200 926 l 338 926 z "},"⁰":{"ha":842,"x_min":89,"x_max":754,"o":"m 428 942 q 658 878 571 942 q 754 649 754 807 q 728 511 754 574 q 657 414 703 449 q 419 356 581 356 q 181 419 256 356 q 89 653 89 496 q 117 792 89 729 q 194 886 146 854 q 428 942 281 942 m 421 735 q 339 638 339 735 q 422 538 339 538 q 504 636 504 538 q 421 735 504 735 z "},"⁴":{"ha":867,"x_min":89,"x_max":779,"o":"m 700 371 l 410 371 l 410 447 l 89 447 l 89 674 l 314 926 l 700 926 l 700 613 l 779 613 l 779 447 l 700 447 l 700 371 m 418 600 l 418 751 l 294 600 l 418 600 z "},"⁵":{"ha":782,"x_min":89,"x_max":693,"o":"m 89 392 l 89 522 q 258 506 196 506 q 347 515 322 506 q 372 546 372 524 q 244 592 372 592 q 89 582 167 592 l 89 926 l 664 926 l 664 747 l 325 747 l 325 708 q 406 711 360 711 q 613 675 546 711 q 693 546 693 635 q 609 408 693 457 q 369 360 525 360 q 89 392 208 360 z "},"⁶":{"ha":825,"x_min":89,"x_max":738,"o":"m 713 914 l 713 746 q 508 765 604 765 q 410 754 438 765 q 379 713 383 743 q 501 726 444 726 q 680 686 622 726 q 738 561 738 646 q 631 386 738 433 q 421 358 563 358 q 160 418 229 358 q 89 628 89 478 q 169 865 89 793 q 433 938 249 938 q 713 914 576 938 m 368 596 l 368 549 q 374 507 368 517 q 425 479 388 479 q 483 551 483 479 q 426 607 483 607 q 368 596 397 607 z "},"⁷":{"ha":764,"x_min":89,"x_max":676,"o":"m 407 371 l 135 371 l 333 703 l 89 703 l 89 926 l 676 926 l 676 735 l 407 371 z "},"⁸":{"ha":844,"x_min":89,"x_max":756,"o":"m 200 647 q 93 776 93 672 q 422 938 93 938 q 671 898 590 938 q 751 776 751 858 q 704 672 751 708 q 622 643 679 654 q 649 646 647 646 q 694 626 668 643 q 735 586 719 608 q 756 518 756 554 q 679 396 756 432 q 422 358 604 358 q 164 396 240 358 q 109 446 129 413 q 89 518 89 479 q 119 600 89 565 q 200 647 149 635 m 426 786 q 354 732 354 786 q 425 678 354 678 q 496 732 496 678 q 426 786 496 786 m 426 594 q 357 543 357 594 q 425 489 357 489 q 493 542 493 489 q 426 594 493 594 z "},"⁹":{"ha":815,"x_min":88,"x_max":726,"o":"m 135 382 l 117 531 q 351 506 242 506 q 426 517 404 506 q 449 554 449 528 q 324 543 400 543 q 142 586 197 543 q 88 726 88 629 q 163 888 88 839 q 407 938 238 938 q 639 883 568 938 q 726 657 726 814 q 650 433 726 510 q 383 358 574 358 q 135 382 257 358 m 457 672 l 457 717 q 444 769 457 754 q 399 785 431 785 q 338 726 338 785 q 400 669 338 669 q 457 672 418 669 z "},"₀":{"ha":842,"x_min":89,"x_max":754,"o":"m 428 571 q 658 507 571 571 q 754 278 754 436 q 657 43 754 117 q 419 -15 581 -15 q 181 49 256 -15 q 89 282 89 125 q 117 421 89 358 q 194 515 146 483 q 428 571 281 571 m 421 364 q 339 267 339 364 q 422 167 339 167 q 504 265 504 167 q 421 364 504 364 z "},"₁":{"ha":589,"x_min":89,"x_max":501,"o":"m 501 0 l 207 0 l 207 294 l 89 257 l 89 457 l 225 556 l 501 556 l 501 0 z "},"₂":{"ha":790,"x_min":89,"x_max":701,"o":"m 701 0 l 103 0 l 103 157 q 353 260 265 210 q 407 298 392 282 q 422 333 422 314 q 372 378 422 378 q 321 355 336 378 q 306 281 306 332 l 90 281 q 89 325 89 297 q 181 515 89 451 q 410 567 257 567 q 631 513 561 567 q 700 375 700 460 q 590 222 700 275 q 458 171 557 206 l 701 171 l 701 0 z "},"₃":{"ha":789,"x_min":88,"x_max":700,"o":"m 97 25 l 88 167 q 265 142 178 142 q 374 185 374 142 q 254 229 374 229 q 143 224 203 229 l 143 269 l 313 376 l 97 376 l 97 556 l 679 556 l 679 417 l 504 308 q 524 310 513 310 q 655 275 610 310 q 700 176 700 240 q 619 38 700 86 q 386 -11 538 -11 q 97 25 246 -11 z "},"₄":{"ha":867,"x_min":89,"x_max":779,"o":"m 700 0 l 410 0 l 410 78 l 89 78 l 89 304 l 314 556 l 700 556 l 700 243 l 779 243 l 779 78 l 700 78 l 700 0 m 418 231 l 418 381 l 294 231 l 418 231 z "},"₅":{"ha":782,"x_min":89,"x_max":693,"o":"m 89 21 l 89 151 q 258 136 196 136 q 347 145 322 136 q 372 176 372 154 q 244 221 372 221 q 89 211 167 221 l 89 556 l 664 556 l 664 376 l 325 376 l 325 338 q 406 340 360 340 q 613 304 546 340 q 693 175 693 264 q 609 38 693 86 q 369 -11 525 -11 q 89 21 208 -11 z "},"₆":{"ha":825,"x_min":89,"x_max":738,"o":"m 713 543 l 713 376 q 508 394 603 394 q 410 383 438 394 q 379 342 383 372 q 501 356 444 356 q 680 315 622 356 q 738 190 738 275 q 709 85 738 131 q 631 17 681 39 q 421 -11 563 -11 q 160 49 229 -11 q 89 258 89 110 q 169 495 89 424 q 433 567 249 567 q 713 543 576 567 m 368 225 l 368 178 q 374 136 368 147 q 425 110 388 110 q 483 182 483 110 q 426 236 483 236 q 368 225 397 236 z "},"₇":{"ha":764,"x_min":89,"x_max":676,"o":"m 407 0 l 135 0 l 333 332 l 89 332 l 89 556 l 676 556 l 676 364 l 407 0 z "},"₈":{"ha":844,"x_min":89,"x_max":756,"o":"m 200 276 q 93 406 93 301 q 422 567 93 567 q 751 406 751 567 q 704 303 751 336 q 622 272 679 283 q 649 276 640 276 q 694 258 668 275 q 735 217 719 240 q 756 149 756 186 q 679 26 756 63 q 422 -11 604 -11 q 164 26 240 -11 q 109 76 129 43 q 89 147 89 108 q 119 229 89 194 q 200 276 149 264 m 426 415 q 354 361 354 415 q 425 307 354 307 q 496 361 496 307 q 426 415 496 415 m 426 224 q 357 172 357 224 q 425 119 357 119 q 493 172 493 119 q 426 224 493 224 z "},"₉":{"ha":815,"x_min":88,"x_max":726,"o":"m 135 11 l 117 161 q 351 136 242 136 q 426 147 404 136 q 449 185 449 158 q 324 174 400 174 q 142 217 197 174 q 88 357 88 260 q 163 517 88 468 q 407 567 238 567 q 639 513 571 567 q 726 286 726 443 q 650 64 726 140 q 383 -11 574 -11 q 135 11 261 -11 m 457 301 l 457 347 q 444 400 457 385 q 399 415 431 415 q 338 356 338 415 q 400 299 338 299 q 457 301 415 299 z "},"₣":{"ha":1539,"x_min":90,"x_max":1515,"o":"m 965 240 l 549 240 l 549 0 l 90 0 l 90 926 l 1026 926 l 1026 615 l 549 615 l 549 522 l 965 522 l 965 240 m 1315 0 l 1026 0 l 1026 522 l 1297 522 l 1297 440 q 1353 516 1324 497 q 1449 535 1383 535 q 1515 529 1475 535 l 1515 264 l 1493 264 l 1451 265 q 1331 232 1360 265 q 1315 172 1315 215 l 1315 0 z "},"₧":{"ha":2306,"x_min":90,"x_max":2282,"o":"m 549 0 l 90 0 l 90 926 l 850 926 q 1101 842 1013 926 q 1190 603 1190 757 q 1050 300 1190 406 q 685 211 928 211 l 549 211 l 549 0 m 549 465 l 611 465 q 743 569 743 465 q 717 636 743 613 q 644 660 692 660 l 549 660 l 549 465 m 1658 149 l 1624 10 q 1422 -11 1529 -11 q 1292 19 1332 -11 q 1253 117 1253 49 l 1253 276 l 1178 276 l 1178 376 l 1369 556 l 1514 556 l 1514 469 l 1686 469 l 1686 276 l 1514 276 l 1514 186 q 1524 150 1514 157 q 1581 143 1535 143 q 1658 149 1625 143 m 2261 469 l 2261 315 q 2088 329 2175 329 q 2002 326 2018 329 q 1986 311 1986 324 q 2000 299 1986 300 l 2094 299 q 2195 292 2174 296 q 2235 275 2217 289 q 2282 164 2282 240 q 2260 76 2282 114 q 2201 19 2239 38 q 2000 -11 2139 -11 q 1761 6 1894 -11 l 1750 150 q 1988 132 1888 132 q 2031 135 2021 132 q 2042 149 2042 139 q 2025 160 2042 160 q 2007 158 2014 160 l 1985 158 q 1801 183 1849 158 q 1732 317 1732 222 q 1804 451 1732 411 q 2019 482 1857 482 q 2261 469 2149 482 z "},"€":{"ha":1340,"x_min":44,"x_max":1293,"o":"m 699 489 l 1044 489 l 996 376 l 697 376 q 774 315 717 333 q 943 296 831 296 q 1276 333 1114 296 l 1276 13 q 874 -19 1069 -19 q 451 39 582 -19 q 197 376 240 135 l 44 376 l 92 489 l 189 489 q 289 772 197 658 q 792 946 429 946 q 1293 903 1006 946 l 1293 540 q 936 576 1086 576 q 699 489 732 576 z "},"℁":{"ha":1843,"x_min":18,"x_max":1808,"o":"m 865 371 l 556 371 l 535 440 l 351 440 l 332 371 l 18 371 l 204 926 l 681 926 l 865 371 m 497 599 l 446 750 l 392 599 l 497 599 m 1258 926 l 885 0 l 749 0 l 1121 926 l 1258 926 m 1133 17 l 1133 176 q 1461 149 1313 149 q 1494 168 1494 149 q 1488 181 1494 178 q 1458 183 1481 183 l 1411 183 q 1213 211 1271 183 q 1118 361 1118 253 q 1204 517 1118 468 q 1478 567 1290 567 q 1786 539 1631 567 l 1786 369 q 1549 389 1656 389 l 1483 389 q 1435 369 1435 389 q 1461 351 1435 351 l 1564 351 q 1714 331 1656 351 q 1783 278 1757 317 q 1808 190 1808 239 q 1717 38 1808 92 q 1613 -1 1669 10 q 1457 -11 1557 -11 q 1133 17 1310 -11 z "},"℅":{"ha":740,"x_min":189,"x_max":551,"o":"m 369 590 q 507 560 463 590 q 551 467 551 531 q 503 370 551 404 q 368 336 456 336 q 236 371 283 336 q 189 467 189 406 q 369 590 189 590 z "},"℗":{"ha":396,"x_min":53,"x_max":343,"o":"m 343 371 l 53 371 l 53 849 q 199 840 110 840 q 343 849 286 840 l 343 371 m 343 936 l 343 885 q 335 863 343 868 q 303 857 326 857 l 103 857 q 71 863 79 857 q 63 885 63 868 l 63 936 q 71 958 63 953 q 103 964 79 964 l 303 964 q 335 958 326 964 q 343 936 343 953 z "},"™":{"ha":1721,"x_min":3,"x_max":1657,"o":"m 482 371 l 175 371 l 175 700 l 3 700 l 3 926 l 654 926 l 654 700 l 482 700 l 482 371 m 1657 371 l 1363 371 l 1363 625 l 1271 371 l 1103 371 l 1011 617 l 1011 371 l 721 371 l 721 926 l 1101 926 l 1186 674 l 1272 926 l 1657 926 l 1657 371 z "},"Ω":{"ha":926,"x_min":31,"x_max":894,"o":"m 38 0 l 38 249 l 175 249 q 89 325 115 288 q 31 518 31 400 q 156 825 31 700 q 463 950 281 950 q 769 825 644 950 q 894 518 894 700 q 831 317 894 393 q 750 249 804 285 l 888 249 l 888 0 l 501 0 l 501 228 q 581 310 560 256 q 603 476 603 365 q 579 615 603 561 q 531 674 564 650 q 463 697 497 697 q 394 674 428 697 q 346 614 361 650 q 322 474 322 560 q 347 311 322 369 q 424 228 371 253 l 424 0 l 38 0 z "},"⅓":{"ha":1542,"x_min":89,"x_max":1454,"o":"m 501 371 l 207 371 l 207 665 l 89 628 l 89 828 l 225 926 l 501 926 l 501 371 m 926 926 l 553 0 l 417 0 l 789 926 l 926 926 m 851 25 l 842 167 q 1019 142 931 142 q 1128 185 1128 142 q 1008 229 1128 229 q 897 224 957 229 l 897 269 l 1067 376 l 851 376 l 851 556 l 1433 556 l 1433 417 l 1258 308 q 1278 310 1267 310 q 1409 275 1364 310 q 1454 176 1454 240 q 1373 38 1454 86 q 1140 -11 1292 -11 q 851 25 1000 -11 z "},"⅔":{"ha":1743,"x_min":89,"x_max":1656,"o":"m 701 371 l 103 371 l 103 528 q 353 631 265 581 q 407 669 392 653 q 422 704 422 685 q 372 747 422 747 q 321 725 336 747 q 306 651 306 703 l 90 651 q 89 696 89 668 q 181 886 89 822 q 410 938 257 938 q 631 883 561 938 q 700 746 700 831 q 590 593 700 646 q 458 542 557 576 l 701 542 l 701 371 m 1126 926 l 754 0 l 618 0 l 990 926 l 1126 926 m 1053 25 l 1043 167 q 1218 142 1131 142 q 1328 185 1328 142 q 1208 229 1328 229 q 1097 224 1157 229 l 1097 269 l 1267 376 l 1053 376 l 1053 556 l 1635 556 l 1635 417 l 1460 308 q 1478 310 1468 310 q 1610 276 1564 310 q 1656 176 1656 242 q 1574 38 1656 86 q 1342 -11 1493 -11 q 1053 25 1196 -11 z "},"⅛":{"ha":1597,"x_min":89,"x_max":1510,"o":"m 501 371 l 207 371 l 207 665 l 89 628 l 89 828 l 225 926 l 501 926 l 501 371 m 926 926 l 553 0 l 417 0 l 789 926 l 926 926 m 954 276 q 847 406 847 301 q 1175 567 847 567 q 1424 527 1343 567 q 1504 406 1504 488 q 1457 303 1504 336 q 1375 272 1432 283 q 1401 276 1394 276 q 1447 258 1421 275 q 1489 217 1474 240 q 1510 149 1510 186 q 1433 26 1510 63 q 1176 -11 1358 -11 q 918 26 993 -11 q 863 76 883 43 q 842 147 842 108 q 872 229 842 194 q 954 276 903 264 m 1179 415 q 1108 361 1108 415 q 1178 307 1108 307 q 1249 361 1249 307 q 1179 415 1249 415 m 1181 224 q 1110 172 1110 224 q 1178 119 1110 119 q 1247 172 1247 119 q 1181 224 1247 224 z "},"⅜":{"ha":1797,"x_min":88,"x_max":1708,"o":"m 97 396 l 88 538 q 265 513 175 513 q 374 556 374 513 q 254 600 374 600 q 143 594 203 600 l 143 640 l 313 747 l 97 747 l 97 926 l 679 926 l 679 788 l 504 679 q 524 681 513 681 q 655 646 610 681 q 700 547 700 611 q 619 408 700 457 q 386 360 538 360 q 97 396 246 360 m 1125 926 l 751 0 l 615 0 l 988 926 l 1125 926 m 1153 276 q 1046 406 1046 301 q 1374 567 1046 567 q 1622 527 1542 567 q 1703 406 1703 488 q 1656 303 1703 336 q 1574 272 1631 283 q 1600 276 1592 276 q 1646 258 1619 275 q 1688 217 1672 240 q 1708 149 1708 186 q 1632 26 1708 63 q 1375 -11 1557 -11 q 1117 26 1192 -11 q 1061 76 1082 43 q 1040 147 1040 108 q 1070 229 1040 194 q 1153 276 1100 264 m 1378 415 q 1307 361 1307 415 q 1376 307 1307 307 q 1447 361 1447 307 q 1378 415 1447 415 m 1379 224 q 1308 172 1308 224 q 1376 119 1308 119 q 1446 172 1446 119 q 1379 224 1446 224 z "},"⅝":{"ha":1790,"x_min":89,"x_max":1701,"o":"m 89 392 l 89 522 q 258 506 196 506 q 347 515 322 506 q 372 546 372 524 q 244 592 372 592 q 89 582 167 592 l 89 926 l 664 926 l 664 747 l 325 747 l 325 708 q 406 711 360 711 q 613 675 546 711 q 693 546 693 635 q 609 408 693 457 q 369 360 525 360 q 89 392 208 360 m 1118 926 l 746 0 l 610 0 l 982 926 l 1118 926 m 1146 276 q 1039 406 1039 301 q 1368 567 1039 567 q 1697 406 1697 567 q 1650 303 1697 336 q 1568 272 1625 283 q 1594 276 1586 276 q 1640 258 1614 275 q 1681 217 1665 240 q 1701 149 1701 186 q 1625 26 1701 63 q 1368 -11 1550 -11 q 1110 26 1186 -11 q 1055 76 1075 43 q 1035 147 1035 108 q 1065 229 1035 194 q 1146 276 1094 264 m 1372 415 q 1300 361 1300 415 q 1371 307 1300 307 q 1442 361 1442 307 q 1372 415 1442 415 m 1372 224 q 1303 172 1303 224 q 1371 119 1303 119 q 1439 172 1439 119 q 1372 224 1439 224 z "},"⅞":{"ha":1772,"x_min":89,"x_max":1685,"o":"m 407 371 l 135 371 l 333 703 l 89 703 l 89 926 l 676 926 l 676 735 l 407 371 m 1101 926 l 728 0 l 592 0 l 964 926 l 1101 926 m 1129 276 q 1022 406 1022 301 q 1350 567 1022 567 q 1599 527 1518 567 q 1679 406 1679 488 q 1632 303 1679 336 q 1550 272 1607 283 q 1576 276 1569 276 q 1622 258 1596 275 q 1664 217 1649 240 q 1685 149 1685 186 q 1608 26 1685 63 q 1351 -11 1533 -11 q 1093 26 1168 -11 q 1038 76 1058 43 q 1017 147 1017 108 q 1047 229 1017 194 q 1129 276 1076 264 m 1354 415 q 1283 361 1283 415 q 1353 307 1283 307 q 1424 361 1424 307 q 1354 415 1424 415 m 1356 224 q 1285 172 1285 224 q 1353 119 1285 119 q 1422 172 1422 119 q 1356 224 1422 224 z "},"∂":{"ha":694,"x_min":6,"x_max":686,"o":"m 51 696 l 83 915 q 519 767 365 890 q 686 393 686 631 q 593 94 686 200 q 329 -11 500 -11 q 106 71 192 -11 q 32 184 58 117 q 6 322 6 251 q 88 519 6 440 q 293 597 169 597 q 417 572 382 597 q 378 624 401 608 q 293 660 356 640 q 51 696 203 690 m 402 361 q 390 374 402 361 q 343 386 378 386 q 285 361 308 386 q 261 300 261 336 q 285 240 261 265 q 344 215 310 215 q 402 240 378 215 q 426 300 426 265 q 402 361 426 336 z "},"∅":{"ha":858,"x_min":93,"x_max":767,"o":"m 610 926 l 676 892 l 610 769 q 767 486 767 658 q 667 247 767 344 q 422 149 567 149 q 313 171 358 149 l 225 0 l 158 35 l 243 204 q 93 485 93 315 q 192 724 93 626 q 432 822 290 822 q 544 803 486 822 l 610 926 m 578 697 l 349 239 q 429 228 393 228 q 613 303 536 228 q 689 485 689 379 q 659 608 689 550 q 578 697 629 667 m 278 275 l 508 732 q 433 743 469 743 q 248 667 325 743 q 171 486 171 592 q 278 275 171 361 z "},"∆":{"ha":935,"x_min":14,"x_max":921,"o":"m 14 0 l 317 926 l 615 926 l 921 0 l 14 0 m 378 249 l 550 249 l 468 625 l 378 249 z "},"∏":{"ha":926,"x_min":15,"x_max":910,"o":"m 15 1042 l 910 1042 l 910 813 l 813 813 l 813 -118 l 910 -118 l 910 -347 l 479 -347 l 479 -118 l 556 -118 l 556 813 l 369 813 l 369 -118 l 443 -118 l 443 -347 l 15 -347 l 15 -118 l 115 -118 l 115 813 l 15 813 l 15 1042 z "},"∑":{"ha":926,"x_min":46,"x_max":906,"o":"m 893 1042 l 893 654 l 635 654 l 603 778 l 368 778 l 696 364 l 371 -83 l 615 -83 l 633 51 l 906 51 l 906 -347 l 46 -347 l 46 -44 l 356 364 l 46 736 l 46 1042 l 893 1042 z "},"−":{"ha":740,"x_min":21,"x_max":719,"o":"m 21 568 l 719 568 l 719 357 l 21 357 l 21 568 z "},"√":{"ha":926,"x_min":0,"x_max":926,"o":"m 926 1149 l 926 913 l 724 913 l 528 0 l 186 0 l 133 307 l 0 307 l 0 543 l 294 543 l 315 438 q 331 258 331 364 l 331 232 l 347 232 q 396 622 344 356 l 514 1149 l 926 1149 z "},"∞":{"ha":926,"x_min":22,"x_max":903,"o":"m 472 340 l 468 346 q 361 265 410 289 q 251 242 313 242 q 87 306 151 242 q 22 471 22 371 q 87 635 22 571 q 250 700 151 700 q 390 657 325 700 q 454 601 406 646 l 458 599 q 566 678 521 657 q 672 700 611 700 q 838 636 774 700 q 903 472 903 572 q 838 306 903 371 q 675 242 774 242 q 573 263 617 242 q 472 340 529 285 m 558 471 q 642 417 601 417 q 685 433 667 417 q 703 471 703 449 q 685 509 703 493 q 642 525 667 525 q 558 471 599 525 m 367 471 q 283 525 324 525 q 240 509 258 525 q 222 471 222 493 q 240 433 222 449 q 283 417 258 417 q 367 471 324 417 z "},"∫":{"ha":694,"x_min":-1,"x_max":696,"o":"m -1 -333 l 42 -61 q 107 -75 85 -75 q 155 -62 133 -75 q 185 -26 176 -49 q 192 146 192 -8 l 192 494 q 194 722 192 682 q 210 815 196 763 q 339 990 235 924 q 550 1042 422 1042 q 696 1028 611 1042 l 653 756 q 586 769 611 769 q 510 721 531 769 q 503 647 503 704 l 503 208 q 494 -86 503 -37 q 368 -287 471 -214 q 143 -349 285 -349 q 32 -339 90 -349 q -1 -333 18 -336 z "},"∶":{"ha":726,"x_min":265,"x_max":463,"o":"m 365 847 q 434 818 406 847 q 463 750 463 789 q 433 681 463 710 q 364 651 404 651 q 296 680 325 651 q 267 749 267 708 q 295 819 267 790 q 365 847 324 847 m 364 382 q 432 353 403 382 q 461 285 461 325 q 433 215 461 244 q 364 186 404 186 q 294 215 324 186 q 265 283 265 243 q 294 353 265 325 q 364 382 324 382 z "},"≈":{"ha":694,"x_min":8,"x_max":686,"o":"m 151 483 l 8 585 q 105 756 53 704 q 233 807 157 807 q 288 799 258 807 q 431 750 318 790 q 471 742 457 742 q 543 790 511 742 l 686 689 q 590 521 640 574 q 463 465 535 465 q 310 507 425 465 q 221 532 240 532 q 151 483 185 532 m 151 122 l 8 224 q 105 393 53 342 q 232 444 157 444 q 285 437 258 444 q 431 389 311 429 q 471 381 457 381 q 543 429 513 381 l 686 328 q 590 160 639 210 q 463 104 535 104 q 258 163 429 104 q 219 169 235 169 q 151 122 185 169 z "},"≠":{"ha":740,"x_min":21,"x_max":719,"o":"m 646 731 l 719 731 l 719 519 l 524 519 l 458 407 l 719 407 l 719 196 l 338 196 l 240 28 l 58 133 l 94 196 l 21 196 l 21 407 l 215 407 l 282 519 l 21 519 l 21 731 l 403 731 l 500 899 l 682 794 l 646 731 z "},"≤":{"ha":694,"x_min":46,"x_max":647,"o":"m 647 961 l 647 678 l 376 622 l 646 568 l 647 286 l 46 497 l 46 750 l 647 961 m 647 251 l 647 -14 l 46 -14 l 46 251 l 647 251 z "},"≥":{"ha":694,"x_min":46,"x_max":647,"o":"m 46 286 l 47 568 l 317 622 l 46 678 l 46 961 l 647 750 l 647 497 l 46 286 m 46 -14 l 46 251 l 647 251 l 647 -14 l 46 -14 z "},"⋅":{"ha":493,"x_min":65,"x_max":428,"o":"m 246 524 q 383 494 339 524 q 428 400 428 464 q 380 303 428 338 q 244 269 332 269 q 113 304 160 269 q 65 400 65 339 q 246 524 65 524 z "},"◊":{"ha":926,"x_min":103,"x_max":824,"o":"m 464 963 l 824 464 l 464 -36 l 103 464 l 464 963 m 464 839 l 190 464 l 464 88 l 738 464 l 464 839 z "},"":{"ha":603,"x_min":-17,"x_max":533,"o":"m -17 -181 l -17 40 q 22 36 17 36 q 81 71 68 36 q 85 154 85 85 l 85 794 q 304 781 171 781 q 533 794 447 781 l 533 118 q 518 -37 533 15 q 464 -124 503 -89 q 355 -172 425 -158 q 149 -185 285 -185 q -17 -181 100 -185 z "},"":{"ha":694,"x_min":135,"x_max":554,"o":"m 554 -56 l 421 -208 l 135 -208 l 192 -56 l 554 -56 z "},"":{"ha":694,"x_min":124,"x_max":625,"o":"m 489 967 l 124 967 l 225 1081 l 625 1081 l 489 967 z "},"":{"ha":694,"x_min":43,"x_max":651,"o":"m 651 1094 l 540 965 l 158 965 l 43 1094 l 293 1094 l 347 1047 l 390 1094 l 651 1094 z "},"":{"ha":694,"x_min":42,"x_max":651,"o":"m 42 967 l 42 1103 l 283 1103 l 283 967 l 42 967 m 410 967 l 410 1103 l 651 1103 l 651 967 l 410 967 z "},"":{"ha":694,"x_min":68,"x_max":569,"o":"m 206 967 l 68 1081 l 468 1081 l 569 967 l 206 967 z "},"":{"ha":694,"x_min":-86,"x_max":781,"o":"m 197 967 l -86 967 l 15 1081 l 333 1081 l 197 967 m 644 967 l 361 967 l 463 1081 l 781 1081 l 644 967 z "},"":{"ha":694,"x_min":54,"x_max":640,"o":"m 640 967 l 54 967 l 54 1107 l 640 1107 l 640 967 z "},"":{"ha":357,"x_min":51,"x_max":313,"o":"m 313 511 l 197 261 l 51 261 l 104 511 l 313 511 z "},"":{"ha":329,"x_min":47,"x_max":282,"o":"m 164 522 q 282 444 282 522 q 251 384 282 406 q 164 363 219 363 q 78 384 110 363 q 47 444 47 406 q 164 522 47 522 z "},"ﬁ":{"ha":1447,"x_min":4,"x_max":1371,"o":"m 563 0 l 113 0 l 113 310 l 4 310 l 4 621 l 113 621 l 113 763 q 196 928 113 881 q 331 974 257 964 q 588 985 404 985 q 838 976 665 985 l 838 733 q 710 740 756 740 q 594 724 625 740 q 563 663 563 707 l 563 621 l 838 621 l 838 310 l 563 310 l 563 0 m 1371 0 l 921 0 l 921 794 q 1146 781 1003 781 q 1371 794 1289 781 l 1371 0 m 1371 950 l 1371 864 q 1360 833 1371 840 q 1315 825 1350 825 l 992 825 q 947 833 957 825 q 936 864 936 840 l 936 950 q 947 981 936 974 q 992 989 957 989 l 1315 989 q 1360 981 1350 989 q 1371 950 1371 974 z "},"ﬂ":{"ha":1447,"x_min":4,"x_max":1371,"o":"m 563 0 l 113 0 l 113 310 l 4 310 l 4 621 l 113 621 l 113 763 q 196 928 113 881 q 331 974 257 964 q 588 985 404 985 q 838 976 665 985 l 838 733 q 710 740 756 740 q 594 724 625 740 q 563 663 563 707 l 563 621 l 838 621 l 838 310 l 563 310 l 563 0 m 1371 0 l 921 0 l 921 965 l 1371 965 l 1371 0 z "}}}
